<svg width="124" height="31" viewBox="0 0 124 31" fill="none" xmlns="http://www.w3.org/2000/svg">
<g clip-path="url(#clip0_1_444)">
<path d="M106.607 0.181824C104.668 0.181824 103.083 1.74723 103.088 3.6856C103.083 5.63377 104.683 7.19428 106.626 7.18937C108.565 7.19428 110.115 5.63377 110.115 3.6856C110.11 1.75214 108.545 0.181824 106.607 0.181824ZM42.9989 0.240711C41.0508 0.240711 39.4804 1.7914 39.4804 3.72976C39.4804 5.67794 41.0557 7.26298 42.9989 7.26788C44.9324 7.26788 46.5027 5.67794 46.5027 3.72976C46.5076 1.7914 44.9324 0.240711 42.9989 0.240711ZM95.3396 4.17632C93.4062 4.17632 91.8211 5.74173 91.8211 7.68009C91.8211 9.61846 93.4012 11.1986 95.3396 11.1986C97.2829 11.1986 98.8434 9.62336 98.8434 7.68009C98.8483 5.74664 97.2829 4.17632 95.3396 4.17632ZM117.942 4.17632C116.009 4.17632 114.424 5.74173 114.424 7.68009C114.424 9.61846 116.009 11.1986 117.942 11.1986C119.891 11.1986 121.431 9.61846 121.431 7.68009C121.431 5.74173 119.891 4.17141 117.942 4.17632ZM54.0844 4.23521C52.151 4.23521 50.5659 5.82025 50.5659 7.7537C50.5659 9.69697 52.146 11.2575 54.0844 11.2575C56.013 11.2575 57.5882 9.69206 57.5882 7.7537C57.5882 5.82025 56.0179 4.23521 54.0844 4.23521ZM31.7074 4.32845C29.7739 4.32354 28.2036 5.88895 28.2036 7.8224V7.83713C28.2036 9.78039 29.7641 11.3605 31.7074 11.3556C33.6359 11.3556 35.2111 9.77549 35.2111 7.83713C35.2111 5.89386 33.6359 4.32845 31.7074 4.32845ZM107.809 12.5137C107.809 12.5137 100.836 12.5579 100.752 12.5579C99.5648 12.5579 98.5588 13.5688 98.5588 14.7514L98.544 27.4318H98.5588C98.6127 28.9334 99.869 30.1455 101.38 30.1455C102.907 30.1455 104.163 28.9334 104.217 27.4318V23.025C104.217 23.025 107.004 23.0103 107.097 23.0103C108.172 23.0103 109.065 22.1565 109.065 21.0769C109.065 19.9924 108.177 19.1091 107.097 19.1091H104.217V17.9362H107.814C109.306 17.9362 110.503 16.7438 110.498 15.252C110.493 13.7749 109.301 12.5137 107.809 12.5137ZM120.641 12.5137C120.641 12.5137 113.668 12.5579 113.585 12.5579C112.387 12.5579 111.391 13.5639 111.391 14.7514V27.4318H111.406C111.455 28.9334 112.692 30.1455 114.213 30.1455C115.744 30.1455 116.971 28.9383 117.02 27.4318H117.035V23.025C117.035 23.025 119.817 23.0103 119.915 23.0103C120.99 23.0103 121.883 22.1565 121.883 21.0769C121.883 19.9924 120.99 19.1091 119.915 19.1091H117.03V17.9362H120.627C122.109 17.9362 123.311 16.7438 123.311 15.252C123.311 13.7749 122.123 12.5088 120.641 12.5137ZM57.5244 12.5432C56.0375 12.5432 54.8401 13.7405 54.8401 15.2127C54.8401 15.3109 54.8598 15.4139 54.8696 15.517L54.8548 27.4072L54.8696 27.5446C54.9432 28.9481 56.1062 30.0768 57.5391 30.0768C59.026 30.0768 60.2234 28.8843 60.2234 27.4072C60.2234 27.2355 60.2086 27.0735 60.1792 26.9214V23.3931L64.1737 28.7567C64.2326 28.845 64.2964 28.9334 64.3553 29.0315L64.37 29.061C64.8853 29.6596 65.6655 30.0375 66.5194 30.0375C68.075 30.0375 69.3263 28.7812 69.3263 27.2306C69.3312 26.6908 69.1791 26.1608 68.8847 25.7044L68.8405 25.6455C68.8012 25.5817 68.7669 25.5179 68.7178 25.4639L65.1061 20.6156L68.0455 17.0627H68.0308C68.4136 16.5966 68.654 16.0028 68.654 15.3403C68.6491 13.8289 67.4223 12.5824 65.9109 12.5824C64.9196 12.5824 64.0608 13.1075 63.5799 13.8927L60.1792 17.9951V15.6151C60.1939 15.4826 60.2086 15.3403 60.2086 15.2029C60.2086 13.7405 59.0064 12.5432 57.5244 12.5432ZM3.00981 12.5579C1.69958 12.5579 0.649426 13.6277 0.649426 14.9183C0.649426 14.9183 0.634705 27.5103 0.634705 27.7213C0.634705 29.061 1.65541 30.0669 2.99509 30.0669L9.08989 30.0817C12.0833 30.0817 14.5173 27.6624 14.5173 24.669C14.5173 22.976 13.7616 21.4695 12.5495 20.4782C13.261 19.6341 13.7076 18.5398 13.7076 17.3376C13.7125 14.7073 11.5288 12.5481 8.87397 12.553H3.00981V12.5579ZM44.162 12.6364C39.3725 12.6364 35.4761 16.5279 35.4761 21.3222C35.4761 26.1166 39.3725 30.0228 44.162 30.0228C48.9563 30.0228 52.8527 26.1166 52.8478 21.3222C52.8478 16.5279 48.9563 12.6364 44.162 12.6364ZM24.5134 12.6659C19.7141 12.6659 15.8373 16.5671 15.8423 21.3713C15.8423 26.1608 19.7092 30.0473 24.5134 30.0424C29.3175 30.0424 33.1992 26.1608 33.1992 21.3713C33.1992 16.572 29.3175 12.6659 24.5134 12.6659ZM88.4646 12.6659C83.6506 12.6659 79.7444 16.5818 79.7444 21.4007C79.7444 26.2099 83.6456 30.1209 88.4646 30.1209C93.2737 30.1209 97.1847 26.2099 97.1847 21.4007C97.1847 16.5818 93.2786 12.6659 88.4646 12.6659ZM5.37019 16.5033H7.54901C8.27528 16.5033 8.85925 17.0775 8.85925 17.8136C8.85925 18.53 8.27038 19.0943 7.54901 19.0943C7.48031 19.0943 5.37019 19.1091 5.37019 19.1091V16.5033ZM73.944 17.6467C72.0057 17.6467 70.4452 19.2268 70.4403 21.1652C70.4452 23.1036 72.0057 24.6837 73.944 24.6837C75.8873 24.6837 77.4625 23.1036 77.4625 21.1652C77.4576 19.2317 75.8775 17.6467 73.944 17.6467ZM44.162 17.7252C46.1543 17.7252 47.7737 19.3397 47.7737 21.337C47.7737 23.3244 46.1543 24.934 44.162 24.934C42.1696 24.934 40.5649 23.3146 40.5649 21.3222C40.56 19.3397 42.1647 17.7301 44.1472 17.7252H44.162ZM24.5134 17.7547C26.5008 17.7547 28.1251 19.3692 28.1251 21.3664C28.1251 23.3587 26.5057 24.9683 24.5134 24.9634C22.5406 24.9683 20.9213 23.3587 20.9163 21.3664C20.9163 19.3692 22.5357 17.7547 24.5134 17.7547ZM88.4646 17.7841C90.4618 17.7841 92.0763 19.3888 92.0763 21.3958C92.0763 23.3882 90.4569 25.0076 88.4646 25.0076C86.4673 25.0076 84.8479 23.3882 84.8528 21.3958C84.8479 19.4035 86.4575 17.789 88.4498 17.7841H88.4646ZM5.37019 22.814L8.14279 22.8288C8.8985 22.8288 9.51682 23.4274 9.51682 24.1832C9.51191 24.9487 8.90341 25.5572 8.14279 25.5572H5.38492L5.37019 22.814ZM120.519 25.5572C119.253 25.5572 118.247 26.573 118.247 27.844C118.252 29.1198 119.248 30.1307 120.519 30.1307C121.785 30.1307 122.805 29.1149 122.805 27.844C122.81 26.5828 121.79 25.5621 120.528 25.5572C120.528 25.5572 120.524 25.5572 120.519 25.5572ZM120.519 25.7878C121.647 25.7878 122.575 26.7055 122.575 27.844C122.575 28.9775 121.647 29.9001 120.519 29.9001C119.385 29.9001 118.477 28.9726 118.477 27.844C118.477 26.7055 119.385 25.7878 120.519 25.7878ZM119.483 26.4896V29.1395H120.033V28.104H120.597C120.759 28.104 120.877 28.1237 120.931 28.1826C120.99 28.2316 121.024 28.3494 121.024 28.5163V28.7616C121.024 28.845 121.034 28.9137 121.039 28.9923C121.049 29.0364 121.068 29.0904 121.083 29.1444H121.692V29.0855C121.638 29.0561 121.598 28.9874 121.584 28.9186C121.574 28.8745 121.569 28.796 121.569 28.6733V28.5064C121.569 28.32 121.544 28.1826 121.49 28.0942C121.441 28.001 121.343 27.9323 121.23 27.8832C121.368 27.8341 121.49 27.7458 121.549 27.6231C121.613 27.5054 121.638 27.3827 121.642 27.2551C121.642 27.1471 121.628 27.0637 121.598 26.9803C121.559 26.8969 121.505 26.8233 121.446 26.7496C121.382 26.6662 121.294 26.6073 121.201 26.5681C121.098 26.5239 120.97 26.4994 120.789 26.4896H119.483ZM120.033 26.9607H120.671C120.793 26.9607 120.872 26.9754 120.931 27.0048C121.039 27.0588 121.098 27.1619 121.098 27.3238C121.098 27.4661 121.034 27.5642 120.931 27.6133C120.867 27.6428 120.784 27.6575 120.656 27.6575H120.033V26.9607Z" fill="#00B307"/>
</g>
<defs>
<clipPath id="clip0_1_444">
<rect width="122.681" height="29.9636" fill="white" transform="translate(0.629761 0.181824)"/>
</clipPath>
</defs>
</svg>
