<svg width="79" height="31" viewBox="0 0 79 31" fill="none" xmlns="http://www.w3.org/2000/svg">
<g clip-path="url(#clip0_1_436)">
<path d="M69.016 17.4008C68.7127 17.4008 68.4853 17.325 68.3084 17.1481C68.1567 16.9964 68.0556 16.7437 68.0556 16.4404V7.11476C68.0556 6.81149 68.1315 6.55876 68.3084 6.40712C68.4853 6.25548 68.7127 6.17967 69.016 6.17967H70.7093C71.0884 6.17967 71.4169 6.20494 71.6949 6.23021C71.9729 6.28076 72.2257 6.35657 72.4026 6.50821C72.6048 6.65985 72.7311 6.86203 72.8322 7.16531C72.9333 7.44331 72.9838 7.84767 72.9838 8.32786V15.2526C72.9838 15.8844 72.908 16.3393 72.7311 16.6426C72.5542 16.9459 72.3015 17.1481 71.9729 17.2492C71.6444 17.3503 71.2147 17.4008 70.7093 17.3755L69.016 17.4008ZM63.5824 0.746005C63.2791 0.771278 63.0263 0.847096 62.8747 0.998733C62.7231 1.15037 62.6473 1.4031 62.6473 1.70637V21.8741C62.6473 22.1774 62.7231 22.4048 62.9 22.5817C63.0516 22.7334 63.3044 22.8345 63.6076 22.8345H70.6335C72.0993 22.8345 73.3629 22.6828 74.3738 22.3796C75.3848 22.0763 76.1935 21.5961 76.8 20.9895C77.4066 20.383 77.8615 19.5743 78.1142 18.6139C78.3922 17.6535 78.5186 16.5415 78.5186 15.2526V8.32786C78.5186 7.03894 78.3922 5.92694 78.1142 4.96657C77.8362 4.0062 77.4066 3.22274 76.8 2.61619C76.1935 1.98437 75.3848 1.52946 74.3738 1.22619C73.3629 0.922915 72.1246 0.771278 70.6335 0.771278L63.5824 0.746005ZM54.383 14.0648C54.383 14.6713 54.3578 15.2273 54.3325 15.7075C54.282 16.1877 54.1809 16.5921 54.0292 16.9459C53.8776 17.2997 53.6249 17.5524 53.271 17.7294C52.9425 17.9063 52.4876 18.0074 51.9063 18.0074C51.325 18.0074 50.8701 17.9063 50.5416 17.7294C50.1878 17.5524 49.9603 17.2997 49.7834 16.9459C49.6317 16.6173 49.5307 16.1877 49.4801 15.7075C49.4296 15.2273 49.4043 14.6713 49.4296 14.0648V9.51568C49.4296 8.90913 49.4548 8.35313 49.4801 7.87294C49.5307 7.39276 49.6317 6.9884 49.7834 6.63458C49.935 6.28076 50.1878 6.02803 50.5416 5.85112C50.8701 5.67421 51.325 5.57312 51.9063 5.57312C52.4876 5.57312 52.9425 5.67421 53.271 5.85112C53.6249 6.02803 53.8523 6.28076 54.0292 6.63458C54.1809 6.96312 54.282 7.39276 54.3325 7.87294C54.383 8.35313 54.383 8.90913 54.383 9.51568V14.0648ZM59.7914 7.84767C59.7914 7.49385 59.7662 7.06421 59.7156 6.55876C59.6651 6.0533 59.564 5.52257 59.3871 4.9413C59.2102 4.36002 58.9574 3.80402 58.6289 3.24802C58.2751 2.69201 57.8201 2.18656 57.2389 1.73165C56.6576 1.27673 55.9247 0.897642 55.0401 0.619641C54.1556 0.341639 53.0941 0.215275 51.8558 0.190002C50.6174 0.190002 49.5559 0.341639 48.6714 0.619641C47.7868 0.897642 47.0539 1.27673 46.4726 1.73165C45.8914 2.18656 45.4365 2.69201 45.0826 3.24802C44.7288 3.80402 44.4761 4.38529 44.3245 4.9413C44.1475 5.52257 44.0465 6.0533 43.9959 6.55876C43.9454 7.06421 43.9201 7.49385 43.9201 7.84767V15.7328C43.9201 16.0866 43.9454 16.5163 43.9959 17.0217C44.0465 17.5272 44.1475 18.0579 44.3245 18.6392C44.4761 19.2204 44.7541 19.7765 45.0826 20.3325C45.4365 20.8885 45.8914 21.3939 46.4726 21.8741C47.0539 22.329 47.7868 22.7081 48.6714 22.9608C49.5559 23.2388 50.6174 23.3905 51.8558 23.3905C53.0941 23.3905 54.1556 23.2388 55.0401 22.9608C55.9247 22.6828 56.6576 22.329 57.2389 21.8741C57.8201 21.4192 58.2751 20.9137 58.6289 20.3325C58.9827 19.7765 59.2354 19.1952 59.3871 18.6392C59.5387 18.0579 59.6651 17.5272 59.7156 17.0217C59.7662 16.5163 59.7914 16.0866 59.7914 15.7328V7.84767ZM36.0097 14.0648C36.0097 14.6713 35.9844 15.2273 35.9591 15.7075C35.9086 16.1877 35.8075 16.5921 35.6559 16.9459C35.5042 17.2997 35.2515 17.5524 34.8977 17.7294C34.5691 17.9063 34.1142 18.0074 33.533 18.0074C32.9517 18.0074 32.4968 17.9063 32.1682 17.7294C31.8144 17.5524 31.5869 17.2997 31.41 16.9459C31.2584 16.6173 31.1573 16.1877 31.1068 15.7075C31.0562 15.2273 31.0309 14.6713 31.0562 14.0648V9.51568C31.0562 8.90913 31.0815 8.35313 31.1068 7.87294C31.1573 7.39276 31.2584 6.9884 31.41 6.63458C31.5617 6.28076 31.8144 6.02803 32.1682 5.85112C32.4968 5.67421 32.9517 5.57312 33.533 5.57312C34.1142 5.57312 34.5691 5.67421 34.8977 5.85112C35.2515 6.02803 35.479 6.28076 35.6559 6.63458C35.8075 6.96312 35.9086 7.39276 35.9591 7.87294C36.0097 8.35313 36.0097 8.90913 36.0097 9.51568V14.0648ZM41.4434 7.84767C41.4434 7.49385 41.4181 7.06421 41.3675 6.55876C41.317 6.0533 41.2159 5.52257 41.039 4.9413C40.8621 4.36002 40.6093 3.80402 40.2808 3.24802C39.927 2.69201 39.4721 2.18656 38.8908 1.73165C38.3095 1.27673 37.5766 0.897642 36.6921 0.619641C35.8075 0.341639 34.746 0.215275 33.5077 0.190002C32.2693 0.190002 31.2078 0.341639 30.3233 0.619641C29.4388 0.897642 28.7058 1.27673 28.1246 1.73165C27.5433 2.18656 27.0884 2.69201 26.7346 3.24802C26.3807 3.80402 26.128 4.38529 25.9764 4.9413C25.7995 5.52257 25.6984 6.0533 25.6478 6.55876C25.5973 7.06421 25.572 7.49385 25.572 7.84767V15.7328C25.572 16.0866 25.5973 16.5163 25.6478 17.0217C25.6984 17.5272 25.7995 18.0579 25.9764 18.6392C26.128 19.2204 26.406 19.7765 26.7346 20.3325C27.0884 20.8885 27.5433 21.3939 28.1246 21.8741C28.7058 22.329 29.4388 22.7081 30.3233 22.9608C31.2078 23.2388 32.2693 23.3905 33.5077 23.3905C34.746 23.3905 35.8075 23.2388 36.6921 22.9608C37.5766 22.6828 38.3095 22.329 38.8908 21.8741C39.4721 21.4192 39.927 20.9137 40.2808 20.3325C40.6346 19.7765 40.8873 19.1952 41.039 18.6392C41.1906 18.0579 41.317 17.5272 41.3675 17.0217C41.4181 16.5163 41.4434 16.0866 41.4434 15.7328V7.84767ZM22.792 0.746005C23.4238 0.746005 23.7271 1.07455 23.7271 1.6811V5.2193C23.7271 5.52257 23.6513 5.75003 23.4996 5.92694C23.348 6.10385 23.0953 6.17967 22.792 6.17967H14.5531C14.2498 6.17967 14.0223 6.25548 13.8454 6.40712C13.6685 6.55876 13.5927 6.81149 13.5927 7.11476V21.8994C13.5927 22.2026 13.5169 22.4301 13.3652 22.607C13.2136 22.7586 12.9609 22.8597 12.6576 22.8597H8.94248C8.63921 22.8597 8.41175 22.7839 8.23485 22.607C8.08321 22.4301 7.98212 22.2026 7.98212 21.8994V1.70637C7.98212 1.4031 8.05794 1.15037 8.23485 0.998733C8.41175 0.847096 8.63921 0.771278 8.94248 0.771278L22.792 0.746005Z" fill="#00B307"/>
<path d="M77.078 27.7619C77.078 27.7366 77.0527 27.7366 77.0527 27.7114C77.0527 27.6861 77.0527 27.6861 77.078 27.6608L78.3416 25.9423C78.3922 25.8664 78.3922 25.8159 78.3669 25.7906C78.3416 25.7654 78.2911 25.7148 78.2153 25.7148H77.3055C77.2549 25.7148 77.2044 25.7148 77.1791 25.7401C77.1538 25.7653 77.1033 25.7906 77.078 25.8412L76.0924 27.1806C76.0671 27.2059 76.0671 27.2059 76.0418 27.2059C76.0165 27.2059 76.0165 27.1806 76.0165 27.1554V25.917C76.0165 25.7906 75.966 25.7401 75.8396 25.7401H75.132C75.0814 25.7401 75.0309 25.7654 75.0056 25.7906C74.9804 25.8159 74.9551 25.8664 74.9551 25.9423V29.9354C74.9551 29.9859 74.9804 30.0365 75.0056 30.0617C75.0309 30.087 75.0814 30.1123 75.132 30.1123H75.8396C75.8902 30.1123 75.9407 30.087 75.9913 30.0617C76.0418 30.0365 76.0418 29.9859 76.0418 29.9354V29.253V29.2025C76.0418 29.1772 76.0418 29.1772 76.0671 29.1519L76.3198 28.7981C76.3198 28.7728 76.3451 28.7728 76.3704 28.7728C76.3956 28.7728 76.3956 28.7728 76.4209 28.7981L77.2044 29.9859C77.2296 30.0365 77.2549 30.0617 77.3055 30.087C77.3307 30.1123 77.3813 30.1123 77.4318 30.1123H78.3669C78.4427 30.1123 78.4933 30.087 78.5185 30.0365C78.5438 29.9859 78.5438 29.9354 78.4933 29.8848L77.078 27.7619ZM71.4169 25.7148C71.3663 25.7148 71.3158 25.7401 71.2905 25.7653C71.2653 25.7906 71.24 25.8412 71.24 25.917V28.697C71.24 28.7728 71.24 28.8486 71.2653 28.9497C71.2653 29.0508 71.2905 29.1519 71.3411 29.2783C71.3663 29.3794 71.4169 29.5057 71.4927 29.6068C71.5685 29.7079 71.6443 29.809 71.7707 29.9101C71.8971 30.0112 72.0234 30.0617 72.2003 30.1375C72.3773 30.1881 72.5794 30.2134 72.8322 30.2134C73.0849 30.2134 73.2871 30.1881 73.464 30.1375C73.6409 30.087 73.7925 30.0112 73.8936 29.9101C74.02 29.809 74.0958 29.7079 74.1716 29.6068C74.2474 29.5057 74.298 29.3794 74.3233 29.2783C74.3485 29.1772 74.3738 29.0508 74.3738 28.9497C74.3738 28.8486 74.3991 28.7728 74.3991 28.697V25.917C74.3991 25.7906 74.3485 25.7401 74.2222 25.7401H73.5145C73.464 25.7401 73.4134 25.7654 73.3882 25.7906C73.3629 25.8159 73.3376 25.8664 73.3376 25.9423V28.7223C73.3376 28.8234 73.3124 28.8992 73.2871 28.975C73.2618 29.0508 73.2113 29.1014 73.1354 29.1266C73.0596 29.1519 72.9838 29.1772 72.8574 29.1772C72.7311 29.1772 72.6553 29.1519 72.5794 29.1266C72.5036 29.1014 72.4531 29.0508 72.4278 28.975C72.4025 28.8992 72.3773 28.8234 72.3773 28.7223C72.3773 28.6212 72.352 28.5201 72.3773 28.3937V25.9423C72.3773 25.8159 72.3267 25.7653 72.2003 25.7653L71.4169 25.7148ZM70.6082 29.0003C70.7345 29.0003 70.7851 29.0508 70.7851 29.1772V29.8848C70.7851 29.9354 70.7598 29.9859 70.7345 30.0112C70.7093 30.0365 70.6587 30.0617 70.5829 30.0617H69.8753C69.8247 30.0617 69.7742 30.0365 69.7489 30.0112C69.7236 29.9859 69.6983 29.9354 69.6983 29.8848V29.1772C69.6983 29.1266 69.7236 29.0761 69.7489 29.0255C69.7742 29.0003 69.8247 28.975 69.8753 28.975L70.6082 29.0003ZM68.1567 28.3432V28.6717C68.1567 28.7728 68.1314 28.8486 68.1062 28.9245C68.0809 29.0003 68.0303 29.0508 67.9545 29.0761C67.8787 29.1014 67.8029 29.1266 67.6765 29.1266C67.5502 29.1266 67.4743 29.1014 67.3985 29.0761C67.3227 29.0508 67.2722 29.0003 67.2469 28.9245C67.2216 28.8486 67.1963 28.7728 67.1963 28.6717C67.1963 28.5706 67.1711 28.4695 67.1963 28.3432V27.4586V27.1301C67.1963 27.029 67.2216 26.9532 67.2469 26.8774C67.2722 26.8015 67.3227 26.751 67.3985 26.7257C67.4743 26.7004 67.5502 26.6752 67.6765 26.6752C67.8029 26.6752 67.8787 26.7004 67.9545 26.7257C68.0303 26.751 68.0809 26.8015 68.1062 26.8774C68.1314 26.9532 68.1567 27.029 68.1567 27.1301V28.3432ZM69.2434 27.1048C69.2434 27.029 69.2434 26.9532 69.2182 26.8521C69.2182 26.751 69.1929 26.6499 69.1676 26.5235C69.1423 26.4224 69.0918 26.2961 69.016 26.195C68.9402 26.0939 68.8643 25.9928 68.738 25.8917C68.6116 25.7906 68.4852 25.7401 68.3083 25.6643C68.1314 25.6137 67.9292 25.5884 67.6765 25.5884C67.4238 25.5884 67.2216 25.6137 67.0447 25.6643C66.8678 25.7148 66.7162 25.7906 66.6151 25.8917C66.4887 25.9928 66.4129 26.0939 66.3371 26.195C66.2612 26.2961 66.2107 26.4224 66.1854 26.5235C66.1601 26.6246 66.1349 26.751 66.1096 26.8521C66.1096 26.9532 66.0843 27.029 66.0843 27.1048V28.6717C66.0843 28.7475 66.0843 28.8234 66.1096 28.9245C66.1096 29.0255 66.1349 29.1266 66.1854 29.253C66.2107 29.3541 66.2612 29.4805 66.3371 29.5815C66.4129 29.6826 66.4887 29.7837 66.6151 29.8848C66.7414 29.9859 66.8678 30.0365 67.0447 30.1123C67.2216 30.1628 67.4238 30.1881 67.6765 30.1881C67.9292 30.1881 68.1314 30.1628 68.3083 30.1123C68.4852 30.0617 68.6369 29.9859 68.738 29.8848C68.8643 29.7837 68.9402 29.6826 69.016 29.5815C69.0918 29.4805 69.1423 29.3541 69.1676 29.253C69.1929 29.1519 69.2182 29.0255 69.2182 28.9245C69.2182 28.8234 69.2434 28.7475 69.2434 28.6717V27.1048ZM62.622 28.6717C62.622 28.7475 62.622 28.8234 62.6472 28.9245C62.6472 29.0255 62.6725 29.1266 62.723 29.253C62.7483 29.3541 62.7989 29.4805 62.8747 29.5815C62.9505 29.6826 63.0263 29.7837 63.1527 29.8848C63.279 29.9859 63.4054 30.0365 63.5823 30.1123C63.7592 30.1628 63.9614 30.1881 64.2141 30.1881C64.4416 30.1881 64.6185 30.1628 64.7954 30.1123C64.9471 30.0617 65.0987 30.0112 65.1998 29.9354C65.3009 29.8595 65.402 29.7837 65.4778 29.6826C65.5536 29.5815 65.6041 29.4805 65.6547 29.3794C65.7052 29.2783 65.7305 29.1772 65.7305 29.0761C65.7558 28.975 65.7558 28.8992 65.7558 28.7981C65.7558 28.7475 65.7558 28.7223 65.7305 28.6717C65.7052 28.6465 65.68 28.6212 65.6294 28.6212L64.9218 28.4695C64.8712 28.4443 64.7954 28.4695 64.7701 28.4948C64.7196 28.5201 64.6943 28.5706 64.6943 28.6465C64.6943 28.7475 64.6691 28.8234 64.6185 28.8992C64.5932 28.975 64.5427 29.0255 64.4669 29.0508C64.3911 29.0761 64.3152 29.1014 64.1889 29.1014C64.0625 29.1014 63.9867 29.0761 63.9109 29.0508C63.835 29.0255 63.7845 28.975 63.7592 28.8992C63.734 28.8234 63.7087 28.7475 63.7087 28.6465C63.7087 28.5454 63.6834 28.4443 63.7087 28.3179V27.4334V27.1048C63.7087 27.0037 63.734 26.9279 63.7592 26.8521C63.7845 26.7763 63.835 26.7257 63.9109 26.7004C63.9867 26.6752 64.0625 26.6499 64.1889 26.6499C64.29 26.6499 64.3911 26.6752 64.4669 26.7004C64.5427 26.7257 64.5932 26.7763 64.6185 26.8521C64.6438 26.9279 64.6691 27.0037 64.6691 27.0795C64.6691 27.1554 64.6943 27.2059 64.7449 27.2312C64.7954 27.2564 64.846 27.2817 64.9218 27.2817L65.6041 27.1301C65.6547 27.1301 65.68 27.1048 65.7052 27.0795C65.7305 27.0543 65.7305 27.0037 65.7305 26.9784C65.7305 26.9026 65.7052 26.8015 65.7052 26.7004L65.6294 26.3972C65.5789 26.2961 65.5283 26.195 65.4525 26.0939C65.3767 25.9928 65.2756 25.917 65.1745 25.8412C65.0481 25.7653 64.9218 25.7148 64.7701 25.6643C64.6185 25.6137 64.4163 25.5884 64.1889 25.5884C63.9361 25.5884 63.734 25.6137 63.5571 25.6643C63.3801 25.7148 63.2285 25.7906 63.1274 25.8917C63.001 25.9928 62.9252 26.0939 62.8494 26.195C62.7736 26.2961 62.723 26.4224 62.6978 26.5235C62.6725 26.6246 62.6472 26.751 62.622 26.8521C62.622 26.9532 62.5967 27.029 62.5967 27.1048V28.6717H62.622ZM62.0407 29.0003C62.167 29.0003 62.2176 29.0508 62.2176 29.1772V29.8848C62.2176 29.9354 62.1923 29.9859 62.167 30.0112C62.1418 30.0365 62.0912 30.0617 62.0154 30.0617H61.3078C61.2572 30.0617 61.2067 30.0365 61.1814 30.0112C61.1561 29.9859 61.1309 29.9354 61.1309 29.8848V29.1772C61.1309 29.1266 61.1561 29.0761 61.1814 29.0255C61.2067 29.0003 61.2572 28.975 61.3078 28.975L62.0407 29.0003Z" fill="#00B307"/>
<path d="M15.7663 12.7504C13.416 12.5482 1.94209 14.4184 1.08281 12.3965C-0.35774 9.03525 11.6974 10.9307 13.3149 10.9813C14.1236 11.0065 15.1345 11.1582 15.7158 11.0065C16.1201 10.8802 16.3982 10.2231 16.8531 9.97035C17.864 9.3638 19.5067 9.69235 20.922 9.81871C21.8824 9.89453 22.8175 9.99562 23.8284 10.0714C22.3878 10.2736 20.8462 10.4758 19.3298 10.678C19.1529 10.7033 18.8749 10.6274 18.7485 10.8296C20.2902 11.0824 22.034 11.1329 23.702 11.2593C22.0593 11.512 20.2143 11.5625 18.5969 11.8658C18.698 12.0427 19.0013 11.9922 19.1782 12.0175C20.6187 12.1185 22.2109 12.2449 23.7273 12.3207C22.1604 12.5735 20.3407 12.624 18.7738 12.9273C18.8243 13.18 19.1529 13.1042 19.3045 13.1042C20.7451 13.2811 22.3625 13.4833 23.8536 13.6096C22.2109 13.736 20.1891 14.1151 18.4958 14.2162C17.1816 14.292 16.3982 13.5338 15.7663 12.7504Z" fill="#00B307"/>
<path d="M11.6973 12.9526C13.517 12.801 15.0586 12.6746 15.7663 12.7252C16.0948 13.1295 16.4233 13.5086 16.8783 13.7866C17.3079 14.0646 17.8134 14.2415 18.4704 14.191C19.4055 14.1405 20.4417 13.9888 21.4526 13.8625C22.1856 13.7614 22.8932 13.6603 23.5503 13.6097C22.8932 13.5592 22.2361 13.4834 21.5537 13.4075C20.7703 13.3317 20.0121 13.2306 19.3045 13.1295H19.1781C19.0012 13.1295 18.7737 13.1295 18.7484 12.9274V12.9021H18.7737C19.633 12.7252 20.5934 12.6241 21.5537 12.5483C22.2108 12.4977 22.8679 12.4219 23.4745 12.3461C22.3372 12.2703 21.1494 12.1944 20.0374 12.1186C19.7594 12.0934 19.4814 12.0681 19.2034 12.0681H19.077C18.9001 12.0681 18.6979 12.0681 18.5968 11.9164L18.5715 11.8912H18.5968C19.5066 11.7143 20.4923 11.6132 21.4779 11.5374C22.135 11.4868 22.8174 11.411 23.4492 11.3352C23.1206 11.3099 22.7668 11.2846 22.4383 11.2594C21.1746 11.1835 19.8857 11.1077 18.7484 10.9308H18.6979L18.7232 10.9055C18.8243 10.7539 19.0012 10.7539 19.1528 10.7539H19.3045L20.5175 10.6023C21.5285 10.4759 22.5646 10.3243 23.525 10.1979C22.9437 10.1473 22.3625 10.0968 21.8065 10.0463C21.5032 10.021 21.2252 9.99571 20.8966 9.97044L20.1385 9.89462C18.9254 9.76826 17.6617 9.61662 16.853 10.1221C16.6508 10.2484 16.4739 10.4506 16.3223 10.6528C16.1201 10.8803 15.9432 11.1077 15.7157 11.1835C15.3113 11.2846 14.7048 11.2594 14.0982 11.2088C13.8202 11.1835 13.5422 11.1583 13.2895 11.1583C13.0115 11.1583 12.4302 11.0824 11.6721 11.0066C8.94259 10.577 3.8122 10.0463 1.81565 10.9055C1.10801 11.2088 0.804734 11.6637 1.10801 12.3966C1.68928 13.7866 7.45149 13.3065 11.6973 12.9526ZM15.7663 12.7757C15.0586 12.7252 13.517 12.8515 11.6973 13.0032C7.45149 13.357 1.66401 13.8372 1.05746 12.3966C0.728915 11.6384 1.05746 11.1583 1.79037 10.8297C3.8122 9.97044 8.94259 10.5012 11.6973 10.7792C12.4555 10.855 13.0368 10.9308 13.3148 10.9308C13.5675 10.9308 13.8455 10.9561 14.1235 10.9814C14.7301 11.0319 15.3113 11.0572 15.7157 10.9561C15.9179 10.9055 16.0948 10.6781 16.297 10.4506C16.4739 10.2484 16.6255 10.0463 16.853 9.91989C17.687 9.41444 18.9506 9.56607 20.189 9.69244L20.9472 9.76826C21.2252 9.79353 21.5537 9.8188 21.857 9.84407C22.5141 9.89462 23.1712 9.97044 23.8536 9.99571L24.1316 10.021L23.8788 10.0715C22.8426 10.2232 21.7306 10.3748 20.6186 10.5264L19.4055 10.6781H19.2539C19.1275 10.6781 18.9759 10.6781 18.8748 10.7792C20.0121 10.9561 21.2757 11.0319 22.5394 11.1077C22.969 11.133 23.3734 11.1583 23.803 11.1835L24.0557 11.2088L23.803 11.2341C23.0954 11.3352 22.3372 11.411 21.579 11.4868C20.6186 11.5879 19.633 11.6637 18.7484 11.8406C18.8243 11.9417 19.0012 11.9417 19.1528 11.9417H19.2792C19.5572 11.967 19.8352 11.9923 20.1132 11.9923C21.3263 12.0934 22.5899 12.1692 23.803 12.245L24.0557 12.2703L23.803 12.3208C23.0954 12.4219 22.3625 12.4977 21.6296 12.5735C20.6945 12.6746 19.7594 12.7505 18.9001 12.9274C18.9506 13.079 19.1275 13.0537 19.2792 13.0537H19.4055C20.1385 13.1295 20.8966 13.2306 21.6548 13.3317C22.413 13.4075 23.1965 13.5086 23.9294 13.5592V13.6097C23.1965 13.6603 22.3625 13.7866 21.5285 13.8877C20.5175 14.0141 19.4814 14.1657 18.5463 14.2163C17.8892 14.2668 17.3584 14.0899 16.9288 13.8119C16.4233 13.5592 16.0695 13.1801 15.7663 12.7757Z" fill="#00B307"/>
</g>
<defs>
<clipPath id="clip0_1_436">
<rect width="77.3854" height="29.9636" fill="white" transform="translate(0.981689 0.181824)"/>
</clipPath>
</defs>
</svg>
