<svg width="57" height="31" viewBox="0 0 57 31" fill="none" xmlns="http://www.w3.org/2000/svg">
<path fill-rule="evenodd" clip-rule="evenodd" d="M24.595 26.1706C22.1754 28.1579 18.9782 29.3675 15.608 29.3675C7.65809 29.3675 1.2852 22.9728 1.2852 15.1312C1.2852 7.2677 7.65809 0.872957 15.608 0.872957C20.8793 0.872957 25.4594 3.7246 27.9652 8.0453C28.3107 8.13177 28.5701 8.21825 28.9154 8.30472C26.41 3.46551 21.3978 0.181824 15.608 0.181824C7.3122 0.181824 0.59375 6.83566 0.59375 15.1312C0.59375 23.4055 7.31252 30.1455 15.608 30.1455C19.4967 30.1455 23.0395 28.5903 25.7185 26.1706H24.595Z" fill="#00B307"/>
<path fill-rule="evenodd" clip-rule="evenodd" d="M17.509 25.4798H56.7187V19.6036H17.509V25.4798Z" fill="#00B307"/>
<path fill-rule="evenodd" clip-rule="evenodd" d="M19.4963 9.08189L19.3234 9.85982H17.4223C16.9038 15.3905 16.5582 19.8619 16.2126 21.9363C15.435 25.652 11.9784 27.7257 9.73175 27.7257C8.95415 27.7257 8.0036 27.3805 8.0036 26.43C8.0036 25.9114 8.43564 25.4794 8.95415 25.4794C9.73175 25.4794 10.3367 26.0841 10.7688 26.7752C11.9787 26.0841 12.1514 25.4794 12.6699 23.0595C12.9293 21.9363 13.6204 13.9211 13.966 9.85982H12.4105L12.5834 9.08189H14.1389L14.3119 7.69963C15.1759 2.60132 18.8917 1.99634 20.2746 1.99634C20.9657 1.99634 22.3483 2.3419 22.3483 3.29245C22.3483 3.89711 21.8298 4.15653 21.3113 4.15653C20.3607 4.15653 19.9287 3.63802 19.4963 2.86009C17.9408 3.55155 17.6817 7.35374 17.5088 9.08157H19.4963V9.08189ZM19.3237 16.1678C19.3237 12.1068 21.9163 8.5637 26.3231 8.5637C29.0886 8.5637 30.6435 9.77367 30.6435 12.4524C30.6435 16.5137 28.0513 19.9487 23.6441 19.9487C20.8792 19.9487 19.3237 18.7388 19.3237 16.1678ZM27.101 13.0573C27.101 12.0203 27.0146 9.51457 25.4594 9.51457C23.2127 9.51457 22.8668 13.9214 22.8668 15.5634C22.8668 16.514 22.9533 19.085 24.5085 19.085C26.7551 19.0847 27.101 14.699 27.101 13.0573ZM31.5944 16.1678C31.5944 12.1068 34.2734 8.5637 38.6802 8.5637C41.3593 8.5637 42.9791 9.77367 42.9791 12.4524C42.9791 16.5137 40.3219 19.9487 35.9151 19.9487C33.236 19.9487 31.5944 18.7388 31.5944 16.1678ZM39.4578 13.0573C39.4578 12.0203 39.3717 9.51457 37.8162 9.51457C35.483 9.51457 35.2239 13.9214 35.2239 15.5634C35.2239 16.514 35.2239 19.085 36.7791 19.085C39.112 19.0847 39.4578 14.699 39.4578 13.0573ZM56.3735 18.6526C54.8177 19.3438 52.9166 19.9484 51.6208 19.9484C50.9297 19.9484 51.0155 18.9111 51.0155 18.4794C51.0155 17.9615 51.0155 17.2694 51.1888 15.909L51.102 15.8222C50.2379 17.6153 48.5097 19.9484 46.2631 19.9484C44.5346 19.9484 43.7567 18.1338 43.7567 16.6001C43.7567 12.7976 46.7809 8.73665 51.102 8.73665H51.9661C52.3119 6.05763 52.3119 4.93445 52.3119 4.07006C52.3119 3.81096 52.3119 3.55155 52.0525 3.55155C51.7931 3.55155 51.4479 3.63802 50.5835 3.89711L50.4108 3.20598C52.1393 2.60132 54.0404 2.25543 55.7682 2.16896C55.9415 2.16896 56.0277 2.16896 56.0277 2.51453C56.0277 4.76119 54.2992 16.5133 54.2992 17.7021C54.2992 17.9615 54.2992 18.3932 54.6451 18.3932C54.8177 18.3932 55.423 18.2199 56.1141 17.9612L56.3735 18.6526ZM50.7561 14.9584C51.3614 13.4894 51.534 12.0203 51.8799 9.77367C51.7066 9.68687 51.534 9.68687 51.4479 9.68687C48.7688 9.68687 47.4724 13.662 47.4724 15.8222C47.4724 16.3407 47.5592 17.6153 48.3368 17.6153C49.4603 17.6156 50.4108 15.8225 50.7561 14.9584Z" fill="#00B307"/>
<path fill-rule="evenodd" clip-rule="evenodd" d="M19.8422 20.9856H20.7928L22.0024 22.8003V20.9856H22.7803V24.4419H22.0889L20.6198 22.455V24.4419H19.8422V20.9856ZM25.0267 20.9856H27.7057V21.6771H26.0637V22.2814H27.101V23.0594H26.0637V23.664H27.7057V24.4419H25.0267V20.9856ZM30.5577 21.6771H29.6071V20.9856H32.5449V21.6771H31.5944V24.4419H30.5577V21.6771ZM34.2734 20.9856H35.3098L35.7424 22.8003H35.8283L36.2603 20.9856H37.125L37.5568 22.8003H37.6435L38.0756 20.9856H38.8529L37.9888 24.4419H37.125L36.6062 22.5409L36.0877 24.4419H35.2239L34.2734 20.9856ZM42.3744 24.5287C41.3593 24.5287 40.6678 23.8376 40.6678 22.7138C40.6678 21.5906 41.3589 20.8992 42.3744 20.8992C43.4118 20.8992 44.0161 21.5903 44.0161 22.7138C44.0161 23.8373 43.4114 24.5287 42.3744 24.5287ZM41.7698 22.7135C41.7698 23.664 42.0292 23.8373 42.3744 23.8373C42.7203 23.8373 42.9791 23.664 42.9791 22.7135C42.9791 21.7636 42.7203 21.5903 42.3744 21.5903C41.9424 21.5903 41.7698 21.8497 41.7698 22.7135ZM46.0898 20.9856H47.8183C48.9415 20.9856 49.2009 21.5035 49.2009 21.9362C49.2009 22.3682 48.9415 22.7135 48.5098 22.8003L49.2009 24.4419H48.0777L47.5592 22.9729H47.1272V24.4419H46.0898V20.9856ZM47.1272 22.3682H47.6457C47.9044 22.3682 48.1642 22.195 48.1642 22.0223C48.1642 21.7636 47.9909 21.5903 47.6457 21.5903H47.1272V22.3682ZM51.3614 20.9856H52.3984V22.3682L53.4351 20.9856H54.3857L53.5216 22.1088L54.5583 24.4419H53.5216L52.8305 22.9729L52.3984 23.5782V24.4419H51.3614V20.9856Z" fill="white"/>
</svg>
