<svg width="90" height="31" viewBox="0 0 90 31" fill="none" xmlns="http://www.w3.org/2000/svg">
<path fill-rule="evenodd" clip-rule="evenodd" d="M1.82321 24.1087L9.03856 24.0116L9.05911 23.9696L1.28403 22.7249L1.24436 22.5748L7.76374 22.4816C7.76374 22.4816 7.70973 22.352 7.54339 22.0308L0.835672 20.9625L0.812728 20.8124L7.08834 20.7221L6.99035 20.2842L0.626788 19.334L0.619618 19.149L6.80154 19.0601L6.75374 18.6046L0.57373 17.5888L0.584246 17.4378L6.75565 17.3489C6.72362 17.1725 6.77525 16.8159 6.77525 16.8159L0.67172 15.8867L0.698965 15.7347L6.86607 15.663C6.86511 15.575 6.90096 15.2514 6.90096 15.2514L0.89829 14.1735L0.925535 14.022L7.15095 13.9321C7.15095 13.9321 7.19158 13.5909 7.2628 13.4135L1.26252 12.4977L1.3065 12.3457L7.54482 12.2558C7.54482 12.2558 7.67436 11.8944 7.74606 11.7611L1.7735 10.8601L1.81748 10.7253L8.16096 10.634C8.16096 10.634 8.34451 10.2521 8.38705 10.1488L2.46038 9.23153L2.52156 9.09626L8.97785 9.00353C8.97785 9.00353 9.15089 8.66367 9.30958 8.42611L3.38913 7.50931L3.44983 7.39077L10.0897 7.3119C10.0897 7.3119 10.2895 6.99738 10.4639 6.83342L4.47896 5.9367L4.59033 5.80095L11.3788 5.70344C11.3788 5.70344 11.6436 5.41473 11.8329 5.26512L5.94832 4.36697L6.04296 4.23122L12.96 4.12606L13.4122 3.72502L8.05197 2.56683L8.03907 2.56827C10.3397 1.11038 13.1947 0.229435 16.6349 0.183547C23.03 0.0970302 28.4299 3.2628 28.6101 10.6961L20.2958 10.808C20.0205 8.17277 18.4493 7.27461 16.2109 7.30473C11.3745 7.36973 9.28568 12.555 9.35164 17.4722C9.39705 20.8291 10.8659 23.0485 14.4232 22.9997C16.7816 22.9682 18.7686 22.1025 19.6171 19.7723L15.6201 19.8254L16.817 13.6927L28.4882 13.5354L25.4223 29.2878L19.8661 29.3623L20.0688 26.6019L19.988 26.5226C18.1831 29.0253 15.3586 30.1027 12.321 30.1439C6.38329 30.2242 3.31026 27.2869 1.83182 24.1326L1.82321 24.1087ZM44.6526 13.7538C43.8008 13.251 42.7454 12.9045 41.3864 12.9202C39.6943 12.9393 37.8564 13.6272 37.8813 15.7547C37.9157 18.7542 44.0173 18.7097 44.0714 23.4008C44.1024 26.0924 42.266 29.1649 37.9592 29.2141C35.8828 29.2385 34.3905 28.794 32.9484 28.2462L33.7419 25.8787C34.8001 26.5331 36.2671 26.9776 37.5233 26.9637C40.2407 26.9322 41.375 25.2272 41.3573 23.7401C41.3157 20.1002 35.2217 20.8115 35.1644 15.8384C35.1266 12.5823 38.0792 10.7023 41.0275 10.6684C42.514 10.6512 43.9786 10.9165 45.3438 11.4647L44.6526 13.7538ZM54.8994 28.4804C53.6466 28.8026 52.3421 29.0483 51.0353 29.0631C47.8566 29.0994 44.9958 27.8514 44.9423 23.2368C44.9007 19.6222 47.3906 15.4144 52.0051 15.3609C55.158 15.3245 56.9486 17.2012 56.9849 20.3033C56.9944 21.1743 56.9008 21.9195 56.7813 22.6895L47.5779 22.7961C47.5301 23.0673 47.5075 23.3424 47.5105 23.6178C47.5421 26.3605 49.2433 27.1353 51.5764 27.1086C52.7809 27.0947 54.0849 26.7725 55.2584 26.2711L54.8994 28.4804ZM54.5046 20.9214C54.5524 20.5366 54.5739 20.2288 54.5701 19.9205C54.5533 18.3828 53.5916 17.2915 51.7714 17.312C49.7977 17.3345 48.305 19.0701 47.815 20.9988L54.5046 20.9214ZM58.5422 17.5922C58.6392 17.0525 58.785 16.3589 58.8782 15.5889L61.1348 15.5626L60.7481 17.6438H60.7993C61.5536 16.4039 62.9503 15.2342 65.2317 15.2079C65.4621 15.205 65.8732 15.2519 66.3369 15.4264L65.8225 17.5597C65.3594 17.3861 64.9741 17.313 64.7949 17.3159C61.8212 17.3493 60.3968 20.5964 60.0823 22.2153L58.7974 28.6654L56.3879 28.6936L58.5422 17.5922ZM67.0811 15.4933L69.4907 15.466L66.8727 28.5717L64.4631 28.5999L67.0811 15.4933ZM70.2521 12.5345L67.5342 12.5656L68.0663 9.84146L70.7841 9.81038L70.2521 12.5345ZM79.0692 28.2003C77.8164 28.5225 76.512 28.7682 75.2051 28.783C72.0265 28.8203 69.1656 27.5713 69.1126 22.9567C69.0705 19.3421 71.5604 15.1343 76.175 15.0808C79.3278 15.0449 81.1184 16.922 81.1547 20.0232C81.1643 20.8951 81.0706 21.6393 80.9511 22.4104L71.7478 22.516C71.7 22.7872 71.6774 23.0623 71.6804 23.3377C71.7119 26.0804 73.4131 26.8552 75.7462 26.8285C76.9508 26.8156 78.2547 26.4924 79.4282 25.992L79.0692 28.2003ZM78.6744 20.6413C78.7222 20.2565 78.7437 19.9487 78.7399 19.6404C78.7222 18.1027 77.7615 17.0114 75.9412 17.0319C73.9676 17.0554 72.4748 18.79 71.9849 20.7187L78.6744 20.6413Z" fill="#00B307"/>
<path fill-rule="evenodd" clip-rule="evenodd" d="M89.3039 17.5444C88.6338 17.2184 87.5789 16.8972 86.6817 16.9077C85.6306 16.9197 84.2496 17.2175 84.2644 18.5257C84.2907 20.7551 88.7523 20.8063 88.7944 24.4467C88.8307 27.6005 85.9451 28.6588 83.8949 28.6822C81.8185 28.7066 81.0456 28.4332 80.0681 28.111L80.505 26.0298C81.4581 26.4031 82.4629 26.7506 83.513 26.7382C84.8208 26.7234 86.2505 26.1679 86.2323 24.6814C86.207 22.451 81.7425 22.169 81.7043 18.8622C81.6727 16.0932 84.4284 14.9847 86.5822 14.9599C87.7352 14.9465 88.9182 15.2147 89.9999 15.6382L89.3039 17.5444Z" fill="#00B307"/>
</svg>
