<svg width="64" height="31" viewBox="0 0 64 31" fill="none" xmlns="http://www.w3.org/2000/svg">
<path fill-rule="evenodd" clip-rule="evenodd" d="M2.00896 4.33035H5.94721C5.59444 4.08984 4.93031 3.78357 3.83712 3.78357C3.04584 3.78357 2.45328 4.00446 2.00896 4.33035ZM6.60843 4.33035H10.7276C10.2422 4.00446 9.56285 3.78357 8.61389 3.78357C7.61189 3.78357 6.96338 4.08984 6.60843 4.33035ZM1.45309 4.87713H11.3162C11.1506 4.66449 10.9518 4.47987 10.7276 4.33035H6.60843C6.37918 4.48548 6.27237 4.613 6.27237 4.613C6.27237 4.613 6.17428 4.48548 5.94721 4.33035H2.00896C1.79888 4.48556 1.61175 4.66963 1.45309 4.87713Z" fill="#00B307"/>
<path fill-rule="evenodd" clip-rule="evenodd" d="M1.1235 5.40557H11.6365C11.5505 5.21787 11.4431 5.04074 11.3165 4.87769H1.45302C1.32223 5.04771 1.2136 5.22682 1.1235 5.40557Z" fill="#00B307"/>
<path fill-rule="evenodd" clip-rule="evenodd" d="M0.898548 5.95181H11.8279C11.7809 5.76404 11.7167 5.581 11.6361 5.40503H1.12344C1.0297 5.59104 0.956314 5.77669 0.898548 5.95181ZM0.755768 6.49895H3.27131C3.43335 6.31076 3.70038 6.14073 4.13671 6.14073C4.57341 6.14073 4.82191 6.31112 4.96287 6.49895H7.7509C7.91548 6.31076 8.18723 6.14073 8.63192 6.14073C9.0519 6.14073 9.30222 6.31112 9.45118 6.49895H11.9202C11.9035 6.31458 11.8725 6.13178 11.8276 5.95217H0.898548C0.839776 6.13133 0.792093 6.31393 0.755768 6.49895Z" fill="#00B307"/>
<path fill-rule="evenodd" clip-rule="evenodd" d="M0.690055 7.02685H3.03157V6.98906C3.03157 6.98906 3.07154 6.73075 3.27136 6.49896H0.755813C0.698411 6.79361 0.690055 6.98906 0.690055 6.98906V7.02685ZM5.14857 7.02685H7.50898V6.98906C7.50898 6.98906 7.54931 6.73075 7.75167 6.49896H4.96364C5.06903 6.64233 5.13311 6.81184 5.14893 6.98906V7.02685H5.14857ZM9.66267 7.02685H11.9293V6.98906C11.9293 6.98906 11.9475 6.79324 11.9206 6.49896H9.45159C9.63397 6.73075 9.66267 6.98906 9.66267 6.98906V7.02685ZM0.688965 7.57363H3.03157V7.02685H0.690055L0.688965 7.57363ZM5.14857 7.57363H7.50898V7.02685H5.14857V7.57363ZM9.66267 7.57363H11.9293V7.02685H9.66267V7.57363Z" fill="#00B307"/>
<path fill-rule="evenodd" clip-rule="evenodd" d="M0.687946 8.12118H3.03201V7.5744H0.6894L0.687946 8.12118ZM5.14864 8.12118H7.50905V7.5744H5.14864V8.12118ZM9.66274 8.12118H11.9294V7.5744H9.66274V8.12118ZM0.686493 8.64907H3.03165V8.12118H0.687583L0.686493 8.64907ZM5.14864 8.64907H7.50905V8.12118H5.14864V8.64907ZM9.66274 8.64907H11.9294V8.12118H9.66274V8.64907Z" fill="#00B307"/>
<path fill-rule="evenodd" clip-rule="evenodd" d="M0.685782 9.1954H3.03202V8.64862H0.686509L0.685782 9.1954ZM5.14866 9.1954H7.50907V8.64862H5.14866V9.1954ZM9.66275 9.1954H11.9294V8.64862H9.66275V9.1954ZM0.684692 9.72329H3.03202V9.1954H0.685782L0.684692 9.72329ZM5.14866 9.72329H7.50907V9.1954H5.14866V9.72329ZM9.66275 9.72329H11.9294V9.1954H9.66275V9.72329Z" fill="#00B307"/>
<path fill-rule="evenodd" clip-rule="evenodd" d="M0.683188 10.2705H3.03161V9.72333H0.684278L0.683188 10.2705ZM5.1486 10.2705H7.50902V9.72333H5.1486V10.2705ZM9.6627 10.2705H11.9294V9.72333H9.6627V10.2705ZM0.682098 10.8172H3.03197V10.2705H0.683552L0.682098 10.8172ZM5.1486 10.8172H7.50902V10.2705H5.1486V10.8172ZM9.6627 10.8172H11.9294V10.2705H9.6627V10.8172Z" fill="#00B307"/>
<path fill-rule="evenodd" clip-rule="evenodd" d="M0.680939 11.345H3.0319V10.8171H0.682029L0.680939 11.345ZM5.14854 11.345H7.50895V10.8171H5.14854V11.345ZM9.66263 11.345H11.9293V10.8171H9.66263V11.345Z" fill="#00B307"/>
<path fill-rule="evenodd" clip-rule="evenodd" d="M0.679871 11.8921H3.03193V11.345H0.68096L0.679871 11.8921ZM5.14856 11.8921H7.50897V11.345H5.14856V11.8921ZM9.66265 11.8921H11.9293V11.345H9.66265V11.8921Z" fill="#00B307"/>
<path fill-rule="evenodd" clip-rule="evenodd" d="M0.678436 12.4387H3.03194V11.8919H0.67989L0.678436 12.4387ZM5.14858 12.4387H7.50899V11.8919H5.14858V12.4387ZM9.66267 12.4387H11.9294V11.8919H9.66267V12.4387Z" fill="#00B307"/>
<path fill-rule="evenodd" clip-rule="evenodd" d="M0.677772 12.9667H3.03201V12.4388H0.678499L0.677772 12.9667ZM5.14864 12.9667H7.50905V12.4388H5.14864V12.9667ZM9.66274 12.9667H11.9294V12.4388H9.66274V12.9667ZM0.676319 13.5135H3.03164V12.9667H0.677409L0.676319 13.5135ZM5.14864 13.5135H7.50905V12.9667H5.14864V13.5135ZM9.66274 13.5135H11.9294V12.9667H9.66274V13.5135ZM0.674866 14.0607H3.03164V13.5139H0.676319L0.674866 14.0607ZM5.14864 14.0607H7.50905V13.5139H5.14864V14.0607ZM9.66274 14.0607H11.9294V13.5139H9.66274V14.0607Z" fill="#00B307"/>
<path fill-rule="evenodd" clip-rule="evenodd" d="M0.673758 14.5884H3.03163V14.0605H0.674848L0.673758 14.5884ZM5.14862 14.5884H7.50903V14.0605H5.14862V14.5884ZM9.66272 14.5884H11.9294V14.0605H9.66272V14.5884ZM0.672668 15.1352H3.03163V14.5884H0.673758L0.672668 15.1352ZM5.14862 15.1352H7.50903V14.5884H5.14862V15.1352ZM9.66272 15.1352H11.9294V14.5884H9.66272V15.1352Z" fill="#00B307"/>
<path fill-rule="evenodd" clip-rule="evenodd" d="M0.671539 15.682H3.03195V15.1352H0.672993L0.671539 15.682ZM5.14858 15.682H7.50899V15.1352H5.14858V15.682ZM9.66268 15.682H11.9294V15.1352H9.66268V15.682Z" fill="#00B307"/>
<path fill-rule="evenodd" clip-rule="evenodd" d="M0.670402 16.2097H3.0319V15.6818H0.671491L0.670402 16.2097ZM5.14853 16.2097H7.50894V15.6818H5.14853V16.2097ZM9.66263 16.2097H11.9293V15.6818H9.66263V16.2097ZM0.669312 16.7569H3.0319V16.2097H0.670402L0.669312 16.7569ZM5.14853 16.7569H7.50894V16.2097H5.14853V16.7569ZM9.66263 16.7569H11.9293V16.2097H9.66263V16.7569Z" fill="#00B307"/>
<path fill-rule="evenodd" clip-rule="evenodd" d="M0.667952 17.2847H3.03163V16.7568H0.669041L0.667952 17.2847ZM5.14863 17.2847H7.50904V16.7568H5.14863V17.2847ZM9.66273 17.2847H11.9294V16.7568H9.66273V17.2847ZM0.666862 17.8319H3.032V17.2847H0.668315L0.666862 17.8319ZM5.14863 17.8319H7.50904V17.2847H5.14863V17.8319ZM9.66273 17.8319H11.9294V17.2847H9.66273V17.8319ZM0.665771 18.3783H3.032V17.8319H0.666862L0.665771 18.3783ZM5.14863 18.3783H7.50904V17.8319H5.14863V18.3783ZM9.66273 18.3783H11.9294V17.8319H9.66273V18.3783Z" fill="#00B307"/>
<path fill-rule="evenodd" clip-rule="evenodd" d="M0.664268 18.9072H3.03194V18.3786H0.665721L0.664268 18.9072ZM5.14858 18.9072H7.50899V18.3786H5.14858V18.9072ZM9.66267 18.9072H11.9294V18.3786H9.66267V18.9072ZM0.663177 19.4536H3.03158V18.9072H0.663904L0.663177 19.4536ZM5.14858 19.4536H7.50899V18.9072H5.14858V19.4536ZM9.66267 19.4536H11.9294V18.9072H9.66267V19.4536Z" fill="#00B307"/>
<path fill-rule="evenodd" clip-rule="evenodd" d="M0.662128 20.0004H3.03162V19.4532H0.663218L0.662128 20.0004ZM5.14862 20.0004H7.50903V19.4532H5.14862V20.0004ZM9.66272 20.0004H11.9294V19.4532H9.66272V20.0004ZM0.660675 20.5286H3.03162V20.0008H0.662128L0.660675 20.5286ZM5.14862 20.5286H7.50903V20.0008H5.14862V20.5286ZM9.66272 20.5286H11.9294V20.0008H9.66272V20.5286Z" fill="#00B307"/>
<path fill-rule="evenodd" clip-rule="evenodd" d="M0.659943 21.0755H3.03198V20.5284H0.661033L0.659943 21.0755ZM5.14861 21.0755H7.50902V20.5284H5.14861V21.0755ZM9.66271 21.0755H11.9294V20.5284H9.66271V21.0755Z" fill="#00B307"/>
<path fill-rule="evenodd" clip-rule="evenodd" d="M0.658439 21.6216H3.03156V21.0752H0.659528L0.658439 21.6216ZM5.14856 21.6216H7.50897V21.0752H5.14856V21.6216ZM9.66266 21.6216H11.9293V21.0752H9.66266V21.6216ZM0.657349 22.1495H3.03156V21.6216H0.658439L0.657349 22.1495ZM5.14856 22.1495H7.50897V21.6216H5.14856V22.1495ZM9.66266 22.1495H11.9293V21.6216H9.66266V22.1495Z" fill="#00B307"/>
<path fill-rule="evenodd" clip-rule="evenodd" d="M0.656232 22.6969H3.03154V22.1497H0.657322L0.656232 22.6969ZM5.14853 22.6969H7.50894V22.1497H5.14853V22.6969ZM9.66263 22.6969H11.9293V22.1497H9.66263V22.6969ZM0.655506 23.244H3.0319V22.6969H0.656596L0.655506 23.244ZM5.14853 23.244H7.50894V22.6969H5.14853V23.244ZM9.66263 23.244H11.9293V22.6969H9.66263V23.244ZM0.654053 23.7719H3.0319V23.244H0.655506L0.654053 23.7719ZM5.14853 23.7719H7.50894V23.244H5.14853V23.7719ZM9.66263 23.7719H11.9293V23.244H9.66263V23.7719Z" fill="#00B307"/>
<path fill-rule="evenodd" clip-rule="evenodd" d="M0.653015 24.3181H3.03195V23.7717H0.654105L0.653015 24.3181ZM5.14859 24.3181H7.509V23.7717H5.14859V24.3181ZM9.66269 24.3181H11.9294V23.7717H9.66269V24.3181Z" fill="#00B307"/>
<path fill-rule="evenodd" clip-rule="evenodd" d="M29.3693 3.55734H29.6784L29.3693 3.01056V3.55734ZM29.3693 4.12301H29.9989L29.6784 3.55734H29.3693V4.12301Z" fill="#00B307"/>
<path fill-rule="evenodd" clip-rule="evenodd" d="M29.3693 4.68866H30.319L29.9989 4.12299H29.3693V4.68866ZM33.9586 4.68866H36.1689V4.14188H33.9586V4.68866Z" fill="#00B307"/>
<path fill-rule="evenodd" clip-rule="evenodd" d="M29.3693 5.25463H30.6394L30.319 4.6886H29.3693V5.25463ZM33.9586 5.25463H36.1689V4.6886H33.9586V5.25463Z" fill="#00B307"/>
<path fill-rule="evenodd" clip-rule="evenodd" d="M29.3693 5.8013H30.9486L30.6394 5.25452H29.3693V5.8013ZM33.9586 5.8013H36.1689V5.25452H33.9586V5.8013Z" fill="#00B307"/>
<path fill-rule="evenodd" clip-rule="evenodd" d="M29.3693 6.36712H31.269L30.9486 5.80145H29.3693V6.36712ZM33.9586 6.36712H36.1689V5.80145H33.9586V6.36712ZM29.3693 6.93279H31.5891L31.269 6.36712H29.3693V6.93279ZM33.9586 6.93279H36.1689V6.36712H33.9586V6.93279Z" fill="#00B307"/>
<path fill-rule="evenodd" clip-rule="evenodd" d="M29.3693 7.49799H31.9095L31.5891 6.93268H29.3693V7.49799ZM33.9586 7.49799H36.169V6.93268H33.9586V7.49799ZM29.3693 8.04513H32.2187L31.9092 7.49799H29.3689V8.04513H29.3693ZM33.9586 8.04513H36.169V7.49799H33.9586V8.04513Z" fill="#00B307"/>
<path fill-rule="evenodd" clip-rule="evenodd" d="M29.3693 8.61114H32.5388L32.2187 8.04547H29.3693V8.61114ZM33.9586 8.61114H36.1689V8.04547H33.9586V8.61114ZM29.3693 9.17681H32.8596L32.5388 8.61114H29.3693V9.17681ZM33.9586 9.17681H36.1689V8.61114H33.9586V9.17681Z" fill="#00B307"/>
<path fill-rule="evenodd" clip-rule="evenodd" d="M29.3693 9.74249H33.1796L32.8596 9.17645H29.3693V9.74249ZM33.9586 9.74249H36.1689V9.17645H33.9586V9.74249Z" fill="#00B307"/>
<path fill-rule="evenodd" clip-rule="evenodd" d="M29.3693 10.2888H33.4888L33.1793 9.74207H29.3693V10.2888ZM33.9586 10.2888H36.1689V9.74207H33.9586V10.2888ZM29.3693 10.8545H33.8089L33.4888 10.2888H29.3693V10.8545ZM33.9586 10.8545H36.1689V10.2888H33.9586V10.8545Z" fill="#00B307"/>
<path fill-rule="evenodd" clip-rule="evenodd" d="M29.3693 11.4203H36.1689V10.8546H33.9586V11.1191L33.8089 10.8546H29.3693V11.4203ZM29.3693 11.986H31.5418V11.477L31.8695 11.986H36.1689V11.4203H29.3693V11.986Z" fill="#00B307"/>
<path fill-rule="evenodd" clip-rule="evenodd" d="M29.3693 12.5331H31.5418V11.9863H29.3693V12.5331ZM32.2209 12.5331H36.1689V11.9863H31.8695L32.2209 12.5331Z" fill="#00B307"/>
<path fill-rule="evenodd" clip-rule="evenodd" d="M29.3693 13.099H31.5418V12.5333H29.3693V13.099ZM32.5849 13.099H36.1689V12.5333H32.2209L32.5849 13.099Z" fill="#00B307"/>
<path fill-rule="evenodd" clip-rule="evenodd" d="M29.3693 13.6643H31.5418V13.0986H29.3693V13.6643ZM32.9489 13.6643H36.1689V13.0986H32.5849L32.9489 13.6643Z" fill="#00B307"/>
<path fill-rule="evenodd" clip-rule="evenodd" d="M29.3693 14.2114H31.5418V13.6642H29.3693V14.2114ZM33.3003 14.2114H36.1689V13.6642H32.9489L33.3003 14.2114Z" fill="#00B307"/>
<path fill-rule="evenodd" clip-rule="evenodd" d="M29.3693 14.7772H31.5418V14.2115H29.3693V14.7772ZM33.6639 14.7772H36.1689V14.2115H33.3003L33.6639 14.7772Z" fill="#00B307"/>
<path fill-rule="evenodd" clip-rule="evenodd" d="M29.3693 15.3428H31.5418V14.7771H29.3693V15.3428ZM34.028 15.3428H36.1689V14.7771H33.6639L34.028 15.3428ZM29.3693 15.9084H31.5418V15.3428H29.3693V15.9084ZM34.0523 15.9084H36.1689V15.3428H34.028L34.0519 15.3806V15.9084H34.0523ZM29.3693 16.4556H31.5418V15.9084H29.3693V16.4556ZM34.0523 16.4556H36.1689V15.9084H34.0523V16.4556Z" fill="#00B307"/>
<path fill-rule="evenodd" clip-rule="evenodd" d="M29.3693 17.0206H31.5418V16.455H29.3693V17.0206ZM34.0523 17.0206H36.1689V16.455H34.0523V17.0206ZM29.3693 17.5863H31.5418V17.0206H29.3693V17.5863ZM34.0523 17.5863H36.1689V17.0206H34.0523V17.5863Z" fill="#00B307"/>
<path fill-rule="evenodd" clip-rule="evenodd" d="M29.3693 18.1526H31.5418V17.5862H29.3693V18.1526ZM34.0523 18.1526H36.1689V17.5862H34.0523V18.1526Z" fill="#00B307"/>
<path fill-rule="evenodd" clip-rule="evenodd" d="M29.3693 18.699H31.5418V18.1526H29.3693V18.699ZM34.0523 18.699H36.1689V18.1526H34.0523V18.699ZM29.3693 19.2654H31.5418V18.699H29.3693V19.2654ZM34.0523 19.2654H36.1689V18.699H34.0523V19.2654Z" fill="#00B307"/>
<path fill-rule="evenodd" clip-rule="evenodd" d="M29.3693 19.8311H31.5418V19.2654H29.3693V19.8311ZM34.0523 19.8311H36.1689V19.2654H34.0523V19.8311Z" fill="#00B307"/>
<path fill-rule="evenodd" clip-rule="evenodd" d="M29.3693 20.3961H31.5418V19.8304H29.3693V20.3961ZM34.0523 20.3961H36.1689V19.8304H34.0523V20.3961ZM29.3693 20.9433H31.5418V20.3961H29.3693V20.9433ZM34.0523 20.9433H36.1689V20.3961H34.0523V20.9433Z" fill="#00B307"/>
<path fill-rule="evenodd" clip-rule="evenodd" d="M29.3693 21.5093H31.5418V20.9436H29.3693V21.5093ZM34.0523 21.5093H36.1689V20.9436H34.0523V21.5093Z" fill="#00B307"/>
<path fill-rule="evenodd" clip-rule="evenodd" d="M29.3693 22.0743H31.5418V21.5086H29.3693V22.0743ZM34.0523 22.0743H36.1689V21.5086H34.0523V22.0743Z" fill="#00B307"/>
<path fill-rule="evenodd" clip-rule="evenodd" d="M29.3693 22.6402H31.5418V22.0745H29.3693V22.6402ZM34.0523 22.6402H36.1689V22.0745H34.0523V22.6402Z" fill="#00B307"/>
<path fill-rule="evenodd" clip-rule="evenodd" d="M29.3693 23.1873H31.5418V22.6401H29.3693V23.1873ZM34.0523 23.1873H36.1689V22.6401H34.0523V23.1873ZM29.3693 23.7529H31.5418V23.1873H29.3693V23.7529ZM34.0523 23.7529H36.1689V23.1873H34.0523V23.7529Z" fill="#00B307"/>
<path fill-rule="evenodd" clip-rule="evenodd" d="M29.3693 24.3184H31.5418V23.7527H29.3693V24.3184ZM34.0523 24.3184H36.1689V23.7527H34.0523V24.3184Z" fill="#00B307"/>
<path fill-rule="evenodd" clip-rule="evenodd" d="M49.2509 0.974137H50.9857V0.181763C50.9857 0.181763 50.2874 0.420819 49.2509 0.974137Z" fill="#00B307"/>
<path fill-rule="evenodd" clip-rule="evenodd" d="M47.9096 1.76583H50.9857V0.974182H49.2509C48.7926 1.21864 48.3451 1.48277 47.9096 1.76583Z" fill="#00B307"/>
<path fill-rule="evenodd" clip-rule="evenodd" d="M46.8105 2.53911H50.9856V1.76599H47.9095C47.5339 2.01025 47.1673 2.26813 46.8105 2.53911ZM45.8412 3.33112H50.9856V2.53911H46.8105C46.4783 2.79178 46.155 3.05594 45.8412 3.33112ZM44.9983 4.12313H50.1515C50.663 3.88299 50.986 3.7838 50.986 3.7838V3.33112H45.8416C45.5514 3.58534 45.2702 3.8495 44.9983 4.12313Z" fill="#00B307"/>
<path fill-rule="evenodd" clip-rule="evenodd" d="M44.2609 4.91487H48.7448C49.194 4.61737 49.664 4.35256 50.1512 4.1225H44.998C44.7437 4.37851 44.4979 4.64277 44.2609 4.91487ZM43.616 5.70688H47.6818C48.0209 5.4231 48.3758 5.15879 48.7448 4.91523H44.2609C44.0374 5.17204 43.8223 5.43606 43.616 5.70688Z" fill="#00B307"/>
<path fill-rule="evenodd" clip-rule="evenodd" d="M43.0497 6.49892H46.8266C47.0979 6.22042 47.3834 5.95607 47.6818 5.70691H43.6161C43.4188 5.96479 43.2299 6.22893 43.0497 6.49892ZM42.5657 7.27204H46.14C46.357 7.00391 46.5862 6.74593 46.827 6.49892H43.05C42.8829 6.74779 42.722 7.00537 42.5657 7.27204Z" fill="#00B307"/>
<path fill-rule="evenodd" clip-rule="evenodd" d="M42.1337 8.0638H45.5531C45.7371 7.79141 45.9329 7.52716 46.1399 7.27179H42.5657C42.414 7.53154 42.2699 7.79565 42.1337 8.0638ZM41.7606 8.85617H45.0667C45.2229 8.57861 45.3853 8.31485 45.5535 8.06416H42.134C42.0032 8.32066 41.8783 8.58442 41.7606 8.85617Z" fill="#00B307"/>
<path fill-rule="evenodd" clip-rule="evenodd" d="M41.4413 9.64803H44.6635C44.7877 9.37905 44.9221 9.11486 45.0664 8.85602H41.7603C41.6467 9.11706 41.5404 9.38116 41.4413 9.64803Z" fill="#00B307"/>
<path fill-rule="evenodd" clip-rule="evenodd" d="M41.1726 10.4396H44.3338C44.4359 10.1657 44.546 9.90117 44.6629 9.64758H41.4408C41.3459 9.90553 41.2566 10.1697 41.1726 10.4396ZM40.9557 11.2127H44.0722C44.1532 10.9464 44.2404 10.6888 44.3342 10.4396H41.173C41.0938 10.6953 41.0213 10.9531 40.9557 11.2127Z" fill="#00B307"/>
<path fill-rule="evenodd" clip-rule="evenodd" d="M40.7749 12.0047H43.863C43.9263 11.7326 43.9956 11.4685 44.0723 11.2127H40.9559C40.8889 11.4751 40.8286 11.7392 40.7749 12.0047ZM40.6365 12.7967H43.7039C43.7501 12.525 43.8031 12.2612 43.863 12.0047H40.7749C40.723 12.2638 40.6768 12.5279 40.6365 12.7967Z" fill="#00B307"/>
<path fill-rule="evenodd" clip-rule="evenodd" d="M40.537 13.5886H43.5924C43.6229 13.3176 43.6607 13.0535 43.7039 12.7966H40.6365C40.5972 13.0598 40.564 13.3239 40.537 13.5886ZM40.4712 14.3807H43.5245C43.5408 14.1104 43.5633 13.8462 43.5928 13.5886H40.5373C40.5095 13.8521 40.4875 14.1162 40.4712 14.3807ZM40.4443 15.1538H43.4961C43.4998 14.8907 43.5088 14.6328 43.5245 14.381H40.4712C40.457 14.6384 40.4481 14.896 40.4443 15.1538Z" fill="#00B307"/>
<path fill-rule="evenodd" clip-rule="evenodd" d="M40.4461 15.9456H43.5044C43.497 15.7572 43.4932 15.5686 43.4932 15.38C43.4932 15.304 43.4946 15.2292 43.4961 15.1536H40.4443C40.4428 15.2601 40.4399 15.3665 40.4399 15.4744C40.4399 15.6336 40.4429 15.7905 40.4461 15.9456ZM47.9324 15.9456H50.9857V15.4744H47.9324V15.9456Z" fill="#00B307"/>
<path fill-rule="evenodd" clip-rule="evenodd" d="M40.4868 16.7385H43.56C43.5341 16.4748 43.5157 16.2105 43.5048 15.9457H40.4465C40.4541 16.2146 40.4675 16.4787 40.4868 16.7385ZM47.9324 16.7385H50.9857V15.9457H47.9324V16.7385Z" fill="#00B307"/>
<path fill-rule="evenodd" clip-rule="evenodd" d="M40.5606 17.5308H43.6629C43.6204 17.2679 43.5861 17.0038 43.56 16.7388H40.4868C40.5057 17.0069 40.53 17.2717 40.5606 17.5308ZM47.9324 17.5308H50.9857V16.7388H47.9324V17.5308Z" fill="#00B307"/>
<path fill-rule="evenodd" clip-rule="evenodd" d="M40.6776 18.3223H43.8162C43.7568 18.06 43.7057 17.7958 43.6629 17.5303H40.5606C40.5933 17.7995 40.6329 18.0632 40.6776 18.3223ZM47.9325 18.3223H50.9857V17.5303H47.9325V18.3223Z" fill="#00B307"/>
<path fill-rule="evenodd" clip-rule="evenodd" d="M40.836 19.114H44.0247C43.9465 18.8524 43.8769 18.5883 43.8162 18.322H40.6776C40.7244 18.5916 40.7771 18.8557 40.836 19.114ZM47.9324 19.114H50.9857V18.322H47.9324V19.114Z" fill="#00B307"/>
<path fill-rule="evenodd" clip-rule="evenodd" d="M41.0326 19.8869H44.2845C44.1891 19.6324 44.1025 19.3746 44.0248 19.1141H40.836C40.8956 19.3775 40.9606 19.6351 41.0326 19.8869ZM47.9325 19.8869H50.9858V19.1141H47.9325V19.8869ZM41.2814 20.6796H44.6144C44.4952 20.4193 44.3852 20.1549 44.2845 19.8869H41.0326C41.1092 20.1572 41.1921 20.422 41.2814 20.6796ZM47.9325 20.6796H50.9858V19.8869H47.9325V20.6796Z" fill="#00B307"/>
<path fill-rule="evenodd" clip-rule="evenodd" d="M41.5829 21.4714H45.015C44.8715 21.2125 44.7377 20.9483 44.6139 20.6794H41.2809C41.3758 20.95 41.4764 21.2138 41.5829 21.4714ZM47.9324 21.4714H50.9856V20.6794H47.9324V21.4714Z" fill="#00B307"/>
<path fill-rule="evenodd" clip-rule="evenodd" d="M41.9415 22.2635H45.4965C45.3259 22.0059 45.1655 21.7417 45.0155 21.4715H41.5833C41.6959 21.7425 41.8158 22.0066 41.9415 22.2635ZM47.9325 22.2635H50.9857V21.4715H47.9325V22.2635Z" fill="#00B307"/>
<path fill-rule="evenodd" clip-rule="evenodd" d="M42.3608 23.0553H46.0713C45.8685 22.7996 45.6768 22.5354 45.4965 22.2633H41.9416C42.0749 22.5358 42.2155 22.7992 42.3608 23.0553ZM47.9325 23.0553H50.9857V22.2633H47.9325V23.0553Z" fill="#00B307"/>
<path fill-rule="evenodd" clip-rule="evenodd" d="M42.8348 23.8281H46.7418C46.5067 23.5808 46.2829 23.323 46.0712 23.0554H42.3607C42.5102 23.3181 42.6683 23.5758 42.8348 23.8281ZM47.9324 23.8281H50.9856V23.0554H47.9324V23.8281Z" fill="#00B307"/>
<path fill-rule="evenodd" clip-rule="evenodd" d="M43.3948 24.6203H47.5885C47.2908 24.3732 47.0081 24.1084 46.742 23.8276H42.835C43.0128 24.0979 43.1995 24.3623 43.3948 24.6203ZM47.9325 24.6203H50.9858V23.8276H47.9325V24.6203Z" fill="#00B307"/>
<path fill-rule="evenodd" clip-rule="evenodd" d="M44.0382 25.4126H50.9857V24.6205H47.9325V24.8847C47.9325 24.8847 47.8035 24.7975 47.5884 24.6205H43.3948C43.6002 24.8917 43.8148 25.1559 44.0382 25.4126Z" fill="#00B307"/>
<path fill-rule="evenodd" clip-rule="evenodd" d="M44.7781 26.2044H50.9856V25.4124H44.0381C44.28 25.6907 44.5278 25.9537 44.7781 26.2044Z" fill="#00B307"/>
<path fill-rule="evenodd" clip-rule="evenodd" d="M45.632 26.9962H50.9857V26.2042H44.7782C45.0534 26.4782 45.3381 26.7424 45.632 26.9962Z" fill="#00B307"/>
<path fill-rule="evenodd" clip-rule="evenodd" d="M46.6212 27.7883H50.986V26.9963H45.6323C45.9519 27.2727 46.2817 27.5368 46.6212 27.7883ZM47.7522 28.5618H50.9857V27.7883H46.6209C46.988 28.0604 47.3654 28.3184 47.7522 28.5618ZM49.1473 29.3538H50.986V28.5618H47.7526C48.254 28.876 48.7263 29.1394 49.1473 29.3538Z" fill="#00B307"/>
<path fill-rule="evenodd" clip-rule="evenodd" d="M50.9857 30.1455V29.3535H49.147C50.2413 29.9108 50.9857 30.1455 50.9857 30.1455Z" fill="#00B307"/>
<path fill-rule="evenodd" clip-rule="evenodd" d="M56.1748 16.2479H58.4037V16.0967H56.1748V16.2479ZM61.0079 16.2479H63.3305V16.0967H61.0079V16.2479ZM56.1748 16.7943H58.4037V16.2479H56.1748V16.7943ZM61.0079 16.7943H63.3305V16.2479H61.0079V16.7943Z" fill="#00B307"/>
<path fill-rule="evenodd" clip-rule="evenodd" d="M56.1748 17.3417H58.4037V16.7946H56.1748V17.3417ZM61.0079 17.3417H63.3305V16.7946H61.0079V17.3417Z" fill="#00B307"/>
<path fill-rule="evenodd" clip-rule="evenodd" d="M56.1748 17.8879H58.4037V17.3415H56.1748V17.8879ZM61.0079 17.8879H63.3305V17.3415H61.0079V17.8879ZM56.1748 18.435H58.4037V17.8879H56.1748V18.435ZM61.0079 18.435H63.3305V17.8879H61.0079V18.435Z" fill="#00B307"/>
<path fill-rule="evenodd" clip-rule="evenodd" d="M56.1748 18.9824H58.4037V18.4353H56.1748V18.9824ZM61.0079 18.9824H63.3305V18.4353H61.0079V18.9824ZM56.1748 19.5296H58.4037V18.9824H56.1748V19.5296ZM61.0079 19.5296H63.3305V18.9824H61.0079V19.5296Z" fill="#00B307"/>
<path fill-rule="evenodd" clip-rule="evenodd" d="M56.1748 20.0755H58.4037V19.5291H56.1748V20.0755ZM61.0079 20.0755H63.3305V19.5291H61.0079V20.0755ZM56.1748 20.6411H58.4037V20.0755H56.1748V20.6411ZM61.0079 20.6411H63.3305V20.0755H61.0079V20.6411ZM56.1748 21.1883H58.4037V20.6411H56.1748V21.1883ZM61.0079 21.1883H63.3305V20.6411H61.0079V21.1883Z" fill="#00B307"/>
<path fill-rule="evenodd" clip-rule="evenodd" d="M56.2296 21.7353H58.6478C58.4498 21.4599 58.4037 21.1882 58.4037 21.1882H56.1748C56.1748 21.1882 56.1715 21.4087 56.2296 21.7353ZM60.9087 21.7353H63.2916C63.3185 21.5537 63.3279 21.4047 63.3305 21.3088V21.1882H61.0079C61.0079 21.1882 61.0347 21.4599 60.9087 21.7353ZM56.3702 22.2817H59.5761C59.1056 22.2142 58.8197 21.9736 58.6478 21.7353H56.2296C56.2587 21.8963 56.3027 22.083 56.3702 22.2817ZM60.1159 22.2817H63.167C63.2288 22.083 63.2669 21.8963 63.2913 21.7353H60.9083C60.7993 21.9736 60.5744 22.2142 60.1159 22.2817Z" fill="#00B307"/>
<path fill-rule="evenodd" clip-rule="evenodd" d="M56.6079 22.8291H62.9465C63.0417 22.6438 63.1133 22.4581 63.1671 22.2819H60.116C59.937 22.308 59.7551 22.308 59.5761 22.2819H56.3703C56.4299 22.4578 56.5069 22.6438 56.6079 22.8291Z" fill="#00B307"/>
<path fill-rule="evenodd" clip-rule="evenodd" d="M56.9883 23.376H62.584C62.725 23.2078 62.8466 23.0243 62.9465 22.8289H56.6079C56.7142 23.0247 56.8417 23.2082 56.9883 23.376ZM57.6295 23.9224H61.9609C62.1948 23.7726 62.4048 23.5884 62.584 23.376H56.9883C57.1742 23.5885 57.3902 23.7726 57.6295 23.9224Z" fill="#00B307"/>
<path fill-rule="evenodd" clip-rule="evenodd" d="M61.9608 23.9221H57.6295C58.149 24.2483 58.8527 24.4692 59.8086 24.4692C60.7597 24.4692 61.4544 24.2487 61.9608 23.9221Z" fill="#00B307"/>
<path fill-rule="evenodd" clip-rule="evenodd" d="M57.6182 4.17965H61.9034C61.3846 3.85267 60.678 3.63287 59.7152 3.63287C58.7997 3.63251 58.1214 3.85267 57.6182 4.17965ZM56.9958 4.72643H62.5414C62.357 4.51358 62.142 4.3293 61.9034 4.17965H57.6182C57.3852 4.33057 57.1755 4.51479 56.9958 4.72643Z" fill="#00B307"/>
<path fill-rule="evenodd" clip-rule="evenodd" d="M56.6235 5.27316H62.9145C62.8106 5.07773 62.6855 4.89437 62.5414 4.72638H56.9959C56.8526 4.89486 56.7278 5.07816 56.6235 5.27316ZM56.3862 5.81994H63.1456C63.0847 5.6312 63.0073 5.44823 62.9142 5.27316H56.6231C56.5294 5.44865 56.4501 5.63152 56.3862 5.81994ZM56.2424 6.36708H58.6068C58.7808 6.1124 59.1012 5.87661 59.696 5.87661C60.3005 5.87661 60.6264 6.11203 60.8015 6.36708H63.28C63.2491 6.18171 63.2043 5.99893 63.1459 5.8203H56.3866C56.3259 5.99899 56.2777 6.18169 56.2424 6.36708Z" fill="#00B307"/>
<path fill-rule="evenodd" clip-rule="evenodd" d="M56.1763 6.9136H58.4088C58.4302 6.71814 58.4981 6.53066 58.6068 6.36682H56.2424C56.1948 6.61568 56.1807 6.81223 56.1763 6.9136ZM61.0025 6.9136H63.3306V6.87036C63.3252 6.70144 63.3084 6.53308 63.2801 6.36646H60.8016C60.9469 6.57681 60.9894 6.80024 61.0025 6.9136ZM56.1749 7.47927H58.4038V6.9888C58.4038 6.9888 58.4038 6.96046 58.4088 6.9136H56.1763C56.1741 6.96192 56.1749 6.9888 56.1749 6.9888V7.47927ZM61.0079 7.47927H63.3306V6.9136H61.0025C61.0083 6.96046 61.0083 6.9888 61.0083 6.9888V7.47927H61.0079Z" fill="#00B307"/>
<path fill-rule="evenodd" clip-rule="evenodd" d="M56.1748 8.02645H58.4037V7.47931H56.1748V8.02645ZM61.0079 8.02645H63.3305V7.47931H61.0079V8.02645ZM56.1748 8.57323H58.4037V8.02645H56.1748V8.57323ZM61.0079 8.57323H63.3305V8.02645H61.0079V8.57323Z" fill="#00B307"/>
<path fill-rule="evenodd" clip-rule="evenodd" d="M56.1748 9.1199H58.4037V8.57312H56.1748V9.1199ZM61.0079 9.1199H63.3305V8.57312H61.0079V9.1199ZM56.1748 9.66704H58.4037V9.12026H56.1748V9.66704ZM61.0079 9.66704H63.3305V9.12026H61.0079V9.66704Z" fill="#00B307"/>
<path fill-rule="evenodd" clip-rule="evenodd" d="M56.1748 10.214H58.4037V9.66718H56.1748V10.214ZM61.0079 10.214H63.3305V9.66718H61.0079V10.214ZM56.1748 10.7607H58.4037V10.214H56.1748V10.7607ZM61.0079 10.7607H63.3305V10.214H61.0079V10.7607ZM56.1748 11.3075H58.4037V10.7607H56.1748V11.3075ZM61.0079 11.3075H63.3305V10.7607H61.0079V11.3075Z" fill="#00B307"/>
<path fill-rule="evenodd" clip-rule="evenodd" d="M56.1748 11.854H58.4037V11.3073H56.1748V11.854ZM61.0079 11.854H63.3305V11.3073H61.0079V11.854Z" fill="#00B307"/>
<path fill-rule="evenodd" clip-rule="evenodd" d="M56.1748 12.401H58.4037V11.8538H56.1748V12.401ZM61.0079 12.401H63.3305V11.8538H61.0079V12.401Z" fill="#00B307"/>
<path fill-rule="evenodd" clip-rule="evenodd" d="M56.1748 12.9479H58.4037V12.4011H56.1748V12.9479ZM61.0079 12.9479H63.3305V12.4011H61.0079V12.9479ZM56.1748 13.495H58.4037V12.9483H56.1748V13.495ZM61.0079 13.495H63.3305V12.9483H61.0079V13.495ZM56.1748 14.0607H58.4037V13.495H56.1748V14.0607ZM61.0079 14.0607H63.3305V13.495H61.0079V14.0607Z" fill="#00B307"/>
<path fill-rule="evenodd" clip-rule="evenodd" d="M56.1748 14.6073H58.4037V14.0605H56.1748V14.6073ZM61.0079 14.6073H63.3305V14.0605H61.0079V14.6073ZM56.1748 15.154H58.4037V14.6073H56.1748V15.154ZM61.0079 15.154H63.3305V14.6073H61.0079V15.154Z" fill="#00B307"/>
<path fill-rule="evenodd" clip-rule="evenodd" d="M56.1748 15.7008H58.4037V15.1536H56.1748V15.7008ZM61.0079 15.7008H63.3305V15.1536H61.0079V15.7008ZM63.3305 16.0968V15.7008H61.0079V16.0968H63.3305ZM58.4037 15.7008H56.1748V16.0968H58.4037V15.7008Z" fill="#00B307"/>
<path fill-rule="evenodd" clip-rule="evenodd" d="M18.8017 4.33035H23.1203C22.6139 4.00446 21.9174 3.78357 20.9586 3.78357C20.0042 3.78357 19.3089 4.00446 18.8017 4.33035ZM18.1775 4.87713H23.7409C23.563 4.66426 23.3536 4.47987 23.12 4.33035H18.8017C18.5673 4.48014 18.3569 4.66448 18.1775 4.87713Z" fill="#00B307"/>
<path fill-rule="evenodd" clip-rule="evenodd" d="M17.8251 5.40557H24.0893C23.993 5.21735 23.8763 5.04032 23.7412 4.87769H18.1775C18.0412 5.04028 17.923 5.21729 17.8251 5.40557Z" fill="#00B307"/>
<path fill-rule="evenodd" clip-rule="evenodd" d="M17.6002 5.95181H24.3091C24.2524 5.76329 24.1789 5.58029 24.0893 5.40503H17.8251C17.7342 5.5803 17.6589 5.76328 17.6002 5.95181ZM17.4745 6.49895H19.9396C20.1092 6.2697 20.4217 6.04627 20.9961 6.04627C21.5886 6.04627 21.9021 6.2697 22.0671 6.49895H24.4293C24.4036 6.31385 24.3635 6.13104 24.3094 5.95217H17.6002C17.5374 6.15308 17.4985 6.34018 17.4745 6.49895Z" fill="#00B307"/>
<path fill-rule="evenodd" clip-rule="evenodd" d="M17.4368 7.02685H19.7409V6.98906C19.7409 6.98906 19.7609 6.74056 19.9396 6.49896H17.4746C17.4299 6.79361 17.4368 6.98906 17.4368 6.98906V7.02685ZM22.251 7.02685H24.4613V6.87135C24.4576 6.74671 24.4468 6.62239 24.429 6.49896H22.0668C22.2412 6.74056 22.251 6.98906 22.251 6.98906V7.02685ZM17.4368 7.57363H19.7409V7.02685H17.4368V7.57363ZM22.251 7.57363H24.4613V7.02685H22.251V7.57363Z" fill="#00B307"/>
<path fill-rule="evenodd" clip-rule="evenodd" d="M17.4368 8.12118H19.7409V7.5744H17.4368V8.12118ZM22.251 8.12118H24.4613V7.5744H22.251V8.12118ZM17.4368 8.64907H19.7409V8.12118H17.4368V8.64907ZM22.251 8.64907H24.4613V8.12118H22.251V8.64907Z" fill="#00B307"/>
<path fill-rule="evenodd" clip-rule="evenodd" d="M17.4368 9.1954H19.7409V8.64862H17.4368V9.1954ZM22.251 9.1954H24.4613V8.64862H22.251V9.1954ZM17.4368 9.72329H19.7409V9.1954H17.4368V9.72329ZM22.251 9.72329H24.4613V9.1954H22.251V9.72329Z" fill="#00B307"/>
<path fill-rule="evenodd" clip-rule="evenodd" d="M17.4368 10.2705H19.7409V9.72333H17.4368V10.2705ZM22.251 10.2705H24.4613V9.72333H22.251V10.2705ZM17.4368 10.8172H19.7409V10.2705H17.4368V10.8172ZM22.251 10.8172H24.4613V10.2705H22.251V10.8172Z" fill="#00B307"/>
<path fill-rule="evenodd" clip-rule="evenodd" d="M17.4368 11.345H19.7409V10.8171H17.4368V11.345ZM22.251 11.345H24.4613V10.8171H22.251V11.345Z" fill="#00B307"/>
<path fill-rule="evenodd" clip-rule="evenodd" d="M17.4368 11.8921H19.7409V11.345H17.4368V11.8921ZM22.251 11.8921H24.4613V11.345H22.251V11.8921Z" fill="#00B307"/>
<path fill-rule="evenodd" clip-rule="evenodd" d="M17.4368 12.4387H19.7409V11.8919H17.4368V12.4387ZM22.251 12.4387H24.4613V11.8919H22.251V12.4387Z" fill="#00B307"/>
<path fill-rule="evenodd" clip-rule="evenodd" d="M17.4368 12.9667H19.7409V12.4388H17.4368V12.9667ZM22.251 12.9667H24.4613V12.4388H22.251V12.9667ZM17.4368 13.5135H19.7409V12.9667H17.4368V13.5135ZM22.251 13.5135H24.4613V12.9667H22.251V13.5135ZM17.4368 14.0607H19.7409V13.5139H17.4368V14.0607ZM22.251 14.0607H24.4613V13.5139H22.251V14.0607Z" fill="#00B307"/>
<path fill-rule="evenodd" clip-rule="evenodd" d="M17.4368 14.5884H19.7409V14.0605H17.4368V14.5884ZM22.251 14.5884H24.4613V14.0605H22.251V14.5884ZM17.4368 15.1352H19.7409V14.5884H17.4368V15.1352ZM22.251 15.1352H24.4613V14.5884H22.251V15.1352Z" fill="#00B307"/>
<path fill-rule="evenodd" clip-rule="evenodd" d="M17.4368 15.682H19.7409V15.1352H17.4368V15.682ZM22.251 15.682H24.4613V15.1352H22.251V15.682Z" fill="#00B307"/>
<path fill-rule="evenodd" clip-rule="evenodd" d="M17.4368 16.2097H19.7409V15.6818H17.4368V16.2097ZM22.251 16.2097H24.4613V15.6818H22.251V16.2097ZM17.4368 16.7569H19.7409V16.2097H17.4368V16.7569ZM22.251 16.7569H24.4613V16.2097H22.251V16.7569Z" fill="#00B307"/>
<path fill-rule="evenodd" clip-rule="evenodd" d="M17.4368 17.2847H19.7409V16.7568H17.4368V17.2847ZM22.251 17.2847H24.4613V16.7568H22.251V17.2847ZM17.4368 17.8319H19.7409V17.2847H17.4368V17.8319ZM22.251 17.8319H24.4613V17.2847H22.251V17.8319ZM14.5398 18.3783H24.4613V17.8319H22.251V17.9637H19.7409V17.8319H17.4368V17.9637H14.2709L14.5398 18.3783Z" fill="#00B307"/>
<path fill-rule="evenodd" clip-rule="evenodd" d="M14.8824 18.9072H24.4614V18.3786H14.5398L14.8824 18.9072ZM15.2366 19.4536H24.4614V18.9072H14.8824L15.2366 19.4536Z" fill="#00B307"/>
<path fill-rule="evenodd" clip-rule="evenodd" d="M15.5911 20.0003H24.4613V19.4536H15.2365L15.5911 20.0003ZM17.5305 20.5286H19.7034V20.2267H22.3072V20.5286H24.4613V20.0003H15.5911L15.7136 20.1893H17.5305V20.5286Z" fill="#00B307"/>
<path fill-rule="evenodd" clip-rule="evenodd" d="M17.5305 21.0755H19.7035V20.5284H17.5305V21.0755ZM22.3073 21.0755H24.4614V20.5284H22.3073V21.0755Z" fill="#00B307"/>
<path fill-rule="evenodd" clip-rule="evenodd" d="M17.5305 21.6216H19.7035V21.0752H17.5305V21.6216ZM22.3073 21.6216H24.4614V21.0752H22.3073V21.6216ZM17.5305 22.1495H19.7035V21.6216H17.5305V22.1495ZM22.3073 22.1495H24.4614V21.6216H22.3073V22.1495Z" fill="#00B307"/>
<path fill-rule="evenodd" clip-rule="evenodd" d="M17.5305 22.6969H19.7035V22.1497H17.5305V22.6969ZM22.3073 22.6969H24.4614V22.1497H22.3073V22.6969ZM17.5305 23.244H19.7035V22.6969H17.5305V23.244ZM22.3073 23.244H24.4614V22.6969H22.3073V23.244ZM17.5305 23.7719H19.7035V23.244H17.5305V23.7719ZM22.3073 23.7719H24.4614V23.244H22.3073V23.7719Z" fill="#00B307"/>
<path fill-rule="evenodd" clip-rule="evenodd" d="M17.5305 24.3181H19.7035V23.7717H17.5305V24.3181ZM22.3073 24.3181H24.4614V23.7717H22.3073V24.3181Z" fill="#00B307"/>
</svg>
