<svg width="77" height="31" viewBox="0 0 77 31" fill="none" xmlns="http://www.w3.org/2000/svg">
<path fill-rule="evenodd" clip-rule="evenodd" d="M7.49125 8.33151C8.06705 7.83791 8.80813 7.59088 9.46658 7.59088C10.7017 7.59088 11.9364 8.16713 13.1711 9.15479L13.7474 9.64885L15.3935 7.34385L14.9816 6.93199C13.4177 5.6151 11.7716 4.95621 9.87799 4.95621C8.47846 4.95621 7.16158 5.45026 5.84469 6.27354C4.5278 7.17901 3.70453 8.33106 3.4575 9.73059C3.12828 11.2123 3.4575 12.5292 4.52781 13.5169C5.18625 14.1758 6.25655 14.752 7.82047 15.41C8.97297 15.9041 9.7136 16.3155 10.0428 16.6451C10.4547 17.1392 10.6191 17.7967 10.4547 18.6205C10.2899 19.4433 9.87844 20.1022 9.13735 20.5136C8.47891 21.0077 7.73783 21.1725 6.99719 21.1725C5.26844 21.1725 3.78717 20.4314 2.46939 18.7849L2.05797 18.2095L0 20.4314L0.411864 20.8428C1.07031 21.6666 1.97533 22.3254 3.12783 22.9008C4.36297 23.477 5.51502 23.8072 6.66752 23.8072C8.14924 23.8072 9.46612 23.3949 10.7008 22.4894C12.0999 21.5839 13.0058 20.3488 13.2528 18.7849C13.6643 17.1392 13.2528 15.8214 12.1825 14.752C11.6063 14.1758 10.4538 13.5169 8.80723 12.8584H8.72504C6.83191 12.0351 6.00863 11.1297 6.17301 10.142C6.33875 9.40137 6.75061 8.74293 7.49125 8.33151ZM24.5308 0.181824H21.7322L20.5797 5.36762H16.7934L16.2172 7.91965H20.0039L17.9459 17.7154C17.4519 19.9374 17.6167 21.5839 18.5222 22.5716C19.0984 23.3944 20.1687 23.8067 21.5683 23.8067C24.1198 23.8067 26.3427 22.4067 28.318 19.6081L28.8942 18.7844L26.0956 18.1264L25.8486 18.5378C24.6135 20.2661 23.297 21.172 21.8975 21.172C21.3212 21.172 20.9094 21.0894 20.6623 20.7606C20.4153 20.431 20.3331 19.7721 20.5797 18.8666L22.8847 7.91875H28.9764L29.5527 5.36672H23.3783L24.5308 0.181824ZM43.6284 6.7676C42.6407 5.53246 41.3229 4.95621 39.5951 4.95621C37.1252 4.95621 34.9851 6.02606 33.2563 8.00229C31.7746 9.73104 30.7869 11.8712 30.2929 14.3406C29.4696 17.6333 29.881 20.1026 31.2805 21.9131C32.3504 23.1483 33.8326 23.8072 35.8079 23.8072C37.5366 23.8072 39.7585 23.3122 42.3106 22.2432L42.8868 21.9958L42.2279 19.1976L41.4877 19.609C39.5124 20.6793 37.701 21.1729 36.1371 21.1729C34.9846 21.1729 34.1618 20.8433 33.6677 20.2666C32.8444 19.3611 32.5974 17.7154 32.9266 15.3278H44.3685L44.5334 14.752C45.274 11.1301 44.9448 8.4137 43.6284 6.7676ZM39.1823 7.59043C40.0887 7.59043 40.8288 7.91965 41.4051 8.66074C42.1462 9.64885 42.3928 10.9657 42.064 12.694H33.5029C33.9147 11.2945 34.6554 10.142 35.6435 9.15434C36.796 8.16668 37.948 7.59043 39.1823 7.59043ZM55.4812 4.95621C53.8356 4.95621 52.3529 5.53246 51.1187 6.68496V4.87446L48.3196 5.28588V5.94477C48.4845 7.59088 48.3196 9.56665 47.8256 11.7068L43.8745 30.1455H46.7562L48.3192 22.9012C49.344 23.4979 50.5092 23.8107 51.695 23.8076C53.4232 23.8076 55.152 23.0665 56.7164 21.7496C58.7743 20.0204 60.0912 17.7163 60.7497 14.6703C61.4898 11.2954 61.1611 8.74383 59.6794 6.93244C58.6095 5.6151 57.2104 4.95621 55.4812 4.95621ZM50.8717 10.5539C52.2716 8.57854 53.6707 7.59043 55.1524 7.59043C56.0579 7.59043 56.799 8.00229 57.3744 8.66074C58.362 9.81323 58.4447 11.7064 57.9506 14.2579C57.3744 17.1392 56.2223 19.1145 54.4109 20.2666C53.5054 20.8428 52.5178 21.1729 51.5301 21.1729C50.6246 21.1729 49.7196 20.7615 48.8959 19.9378L50.8717 10.5539ZM69.8048 12.8589C67.8295 12.0356 66.9231 11.1301 67.1706 10.1425C67.3354 9.40182 67.7469 8.74338 68.4048 8.33151C69.0637 7.83791 69.7226 7.59088 70.4628 7.59088C71.698 7.59088 72.9322 8.16713 74.1673 9.15479L74.7436 9.64885L76.3902 7.34385L75.9787 6.93199C74.4148 5.6151 72.6856 4.95621 70.8751 4.95621C69.4752 4.95621 68.1583 5.45026 66.8409 6.27354C65.524 7.17901 64.7012 8.33106 64.4542 9.73059C64.1254 11.2123 64.4542 12.5292 65.6067 13.5169C66.1829 14.0931 67.2533 14.752 68.8172 15.41L71.0391 16.6451C71.4505 17.1392 71.6153 17.7967 71.4505 18.6205C71.2865 19.4433 70.7925 20.1022 70.1336 20.5136C69.4747 21.0077 68.7345 21.1725 67.993 21.1725C66.2647 21.1725 64.7834 20.4314 63.5483 18.7849L63.0542 18.2095L61.0789 20.4314L61.4077 20.8428C62.0665 21.6666 62.9716 22.3254 64.1245 22.9008C65.277 23.477 66.5113 23.8072 67.6642 23.8072C69.1459 23.8072 70.4624 23.3949 71.6975 22.4894C73.0966 21.5839 74.0021 20.3488 74.2495 18.7849C74.6609 17.1392 74.2495 15.8214 73.2619 14.752C72.603 14.1762 71.4505 13.5173 69.8048 12.8589Z" fill="#00B307"/>
</svg>
