<svg width="30" height="28" viewBox="0 0 30 28" fill="none" xmlns="http://www.w3.org/2000/svg">
<path d="M28.6195 3.19571C25.0756 3.19571 20.069 3.49223 17.5105 6.0494C16.4028 7.15712 15.8496 8.96292 15.9932 11.0068C16.0119 11.2768 16.1914 11.5068 16.4493 11.592C16.706 11.6757 16.9879 11.5973 17.1634 11.3912C18.5863 9.71697 20.3549 8.37524 22.424 7.40315C22.5996 7.31938 22.807 7.31271 22.9958 7.37922C23.1621 7.43906 23.2923 7.55207 23.3602 7.69705C23.5011 7.99494 23.4559 8.38721 22.9879 8.60793C22.9612 8.62121 22.9373 8.63854 22.9107 8.6505C22.9015 8.65449 22.8908 8.65318 22.8828 8.65717C17.7845 11.0535 15.2778 15.2343 14.1395 19.5334C13.3097 14.1505 11.5571 10.9816 9.90153 9.03616C8.70342 7.483 7.52519 6.65983 6.84439 6.19445C6.71804 6.10799 6.33643 5.84737 6.17817 5.68911C5.91886 5.4298 5.91886 5.00824 6.17817 4.74893C6.43748 4.49094 6.86035 4.49094 7.14889 4.77817C7.21939 4.84069 7.3324 4.92048 7.47601 5.01622L7.59438 5.09601C8.55712 5.75556 10.3497 6.98028 11.9401 9.61723C12.0824 9.8526 12.3576 9.97895 12.6249 9.9284C12.8962 9.88053 13.109 9.67177 13.1622 9.40181C13.5093 7.62923 13.3537 4.99889 11.7726 3.41781C9.21412 0.86195 4.2075 0.56543 0.664972 0.56543C0.297891 0.565367 0 0.863258 0 1.23028C0 4.77412 0.29652 9.78073 2.85368 12.3393C3.92014 13.4057 5.56512 13.8845 7.19938 13.8845C8.53312 13.8845 9.84031 13.5507 10.8416 12.9722C12.2073 15.802 13.2978 20.0293 13.2978 26.4961C13.2978 26.8631 13.5956 27.161 13.9627 27.161C14.3297 27.161 14.6276 26.8631 14.6276 26.4961C14.6276 22.8884 15.2459 18.5586 17.5451 14.9948C18.4666 15.8951 20.0531 16.4656 21.811 16.5187C21.8988 16.5214 21.9852 16.5227 22.0716 16.5227C23.8575 16.5227 25.4359 15.9629 26.4293 14.9682C28.9877 12.4097 29.283 7.40309 29.283 3.85919C29.2844 3.49223 28.9878 3.19571 28.6195 3.19571Z" fill="#00B307"/>
</svg>
