<svg width="37" height="30" viewBox="0 0 37 30" fill="none" xmlns="http://www.w3.org/2000/svg">
<path fill-rule="evenodd" clip-rule="evenodd" d="M27.5445 0C23.6288 0 20.4484 3.06572 20.4484 6.84646C20.4484 10.6249 23.6288 13.6929 27.5445 13.6929C34.2717 13.6929 30.3734 25.5819 21.889 26.8204C21.4887 26.8773 21.1233 27.0667 20.8591 27.3543C20.5948 27.6419 20.4491 28.0087 20.4484 28.3883C20.4484 29.3603 21.3756 30.1291 22.4025 29.9819C37.8235 27.7901 43.3069 0.00233651 27.5445 0.00233651V0ZM7.0986 0C3.17792 0 0 3.06338 0 6.84646C0 10.6225 3.17792 13.6882 7.0986 13.6882C13.8233 13.6882 9.92508 25.5819 1.44066 26.8204C1.04076 26.8772 0.675748 27.0663 0.411545 27.3534C0.147343 27.6405 0.00137226 28.0067 0 28.3859C0 29.358 0.927204 30.1267 1.95162 29.9795C17.3776 27.7877 22.8611 0 7.0986 0Z" fill="#00B307"/>
</svg>
