<svg width="26" height="33" viewBox="0 0 26 33" fill="none" xmlns="http://www.w3.org/2000/svg">
<path d="M25.8985 28.122L24.0652 7.46201C24.0323 7.05316 23.6894 6.74323 23.2739 6.74323H19.4097C19.4031 3.30759 16.6071 0.511597 13.1714 0.511597C9.73579 0.511597 6.9398 3.30759 6.9332 6.74323H3.06893C2.66009 6.74323 2.31718 7.05316 2.27762 7.46201L0.444397 28.122C0.444397 28.1484 0.444397 28.1682 0.444397 28.1945C0.444397 30.496 2.56117 32.3687 5.15933 32.3687H21.1835C23.7817 32.3687 25.8985 30.496 25.8985 28.1945C25.8985 28.1682 25.8985 28.1484 25.8985 28.122ZM13.1714 2.09423C15.7366 2.09423 17.8204 4.17804 17.827 6.74323H8.51584C8.52243 4.17804 10.6062 2.09423 13.1714 2.09423ZM21.1835 30.7795H5.15933C3.44481 30.7795 2.04682 29.6387 2.02703 28.2209L3.79431 8.32586H6.9332V11.1021C6.9332 11.5373 7.2893 11.8934 7.72452 11.8934C8.15975 11.8934 8.51584 11.5373 8.51584 11.1021V8.32586H17.827V11.1021C17.827 11.5373 18.1831 11.8934 18.6183 11.8934C19.0536 11.8934 19.4097 11.5373 19.4097 11.1021V8.32586H22.5485L24.3158 28.2275C24.296 29.6387 22.898 30.7795 21.1835 30.7795Z" fill="#00B307"/>
<path d="M16.4619 16.9842L11.7932 21.653L9.88742 19.7472C9.57748 19.4373 9.07632 19.4373 8.76638 19.7472C8.45645 20.0572 8.45645 20.5583 8.76638 20.8683L11.2327 23.3346C11.3843 23.4862 11.5887 23.5654 11.7932 23.5654C11.9976 23.5654 12.1954 23.4862 12.3537 23.3346L17.583 18.1053C17.8929 17.7953 17.8929 17.2942 17.583 16.9842C17.273 16.6809 16.7719 16.6809 16.4619 16.9842Z" fill="#00B307"/>
</svg>
