<svg width="30" height="33" viewBox="0 0 30 33" fill="none" xmlns="http://www.w3.org/2000/svg">
<path d="M25.8776 12.6253V11.4006C25.8776 8.46919 24.8402 5.74527 22.9596 3.72408C21.0321 1.64935 18.3818 0.511597 15.4906 0.511597H14.48C11.5887 0.511597 8.93843 1.64935 7.01094 3.72408C5.13029 5.74527 4.09293 8.46919 4.09293 11.4006V12.6253C1.81072 12.7793 -0.00299072 14.68 -0.00299072 17.0024V18.9165C-0.00299072 21.3325 1.96466 23.3002 4.38071 23.3002H6.85031C7.29203 23.3002 7.65343 22.9388 7.65343 22.497V13.4151C7.65343 12.9734 7.29203 12.612 6.85031 12.612H5.69917V11.4006C5.69917 6.10668 9.47384 2.11784 14.4733 2.11784H15.4839C20.49 2.11784 24.258 6.10668 24.258 11.4006V12.612H23.1068C22.6651 12.612 22.3037 12.9734 22.3037 13.4151V22.4904C22.3037 22.9321 22.6651 23.2935 23.1068 23.2935H24.2312C23.9033 27.4831 21.0187 28.4535 19.6802 28.6744C19.3121 27.5433 18.2479 26.7268 16.9964 26.7268H14.9886C13.4359 26.7268 12.171 27.9917 12.171 29.5444C12.171 31.0971 13.4359 32.3687 14.9886 32.3687H17.0031C18.3015 32.3687 19.3924 31.4853 19.7203 30.294C20.3762 30.2003 21.4136 29.9661 22.4443 29.3637C23.8966 28.5138 25.6166 26.7804 25.8441 23.2868C28.1397 23.1462 29.9601 21.2388 29.9601 18.9098V16.9957C29.9668 14.68 28.1598 12.7726 25.8776 12.6253ZM6.06058 21.6872H4.3941C2.86148 21.6872 1.61664 20.4424 1.61664 18.9098V16.9957C1.61664 15.463 2.86148 14.2182 4.3941 14.2182H6.06058V21.6872ZM17.0031 30.7625H14.9886C14.3193 30.7625 13.7772 30.2204 13.7772 29.5511C13.7772 28.8819 14.3193 28.3398 14.9886 28.3398H17.0031C17.6724 28.3398 18.2145 28.8819 18.2145 29.5511C18.2145 30.2204 17.6724 30.7625 17.0031 30.7625ZM28.3606 18.9098C28.3606 20.4424 27.1157 21.6872 25.5831 21.6872H23.9166V14.2182H25.5831C27.1157 14.2182 28.3606 15.463 28.3606 16.9957V18.9098Z" fill="#00B307"/>
</svg>
