<svg width="28" height="31" viewBox="0 0 28 31" fill="none" xmlns="http://www.w3.org/2000/svg">
<path d="M26.3677 0.904212C26.3278 0.757364 26.2283 0.63381 26.0933 0.563477C25.8269 0.422509 25.4967 0.524202 25.3556 0.790608C25.3552 0.791287 25.3549 0.791965 25.3546 0.792644C25.3546 0.807721 22.5895 6.17204 14.1013 7.1068C12.994 7.22492 11.9117 7.5138 10.8929 7.96316C9.0693 8.75597 7.56321 10.1358 6.61413 11.8831C5.72806 13.5245 5.3611 15.3961 5.56177 17.2505C5.7096 18.6022 6.16107 19.9031 6.88249 21.0558C5.37482 22.1383 0.592462 25.8804 0.161266 29.8969C0.129605 30.1966 0.347012 30.4653 0.646738 30.4969C0.94654 30.5286 1.21513 30.3112 1.24679 30.0114C1.64181 26.4262 6.12865 22.9495 7.52778 21.9423C9.20733 24.0049 11.7221 25.1688 14.4209 25.3587C16.2373 25.476 18.0558 25.1662 19.7309 24.4541C21.5493 23.6912 23.1553 22.4981 24.4108 20.9774C27.6462 17.0575 29.1871 10.4689 26.3677 0.904212ZM7.84138 20.5161C7.63332 20.1884 7.44991 19.8457 7.29258 19.4909C6.9615 18.7421 6.74793 17.9468 6.65936 17.1329C6.47467 15.4997 6.79007 13.8488 7.56396 12.3987C8.40042 10.8614 9.72725 9.64814 11.3332 8.9522C12.2513 8.55243 13.2257 8.29718 14.2219 8.19534C19.8244 7.59227 23.1202 5.09857 24.8208 3.28936C23.8216 6.57904 22.1013 9.60449 19.7852 12.1455L19.4535 8.80444C19.4366 8.50351 19.179 8.27321 18.878 8.2901C18.5771 8.30698 18.3468 8.56465 18.3637 8.86558C18.3645 8.88043 18.3659 8.89528 18.368 8.90998L18.7931 13.2038C16.2572 15.7759 12.7323 18.3601 7.84138 20.5161ZM23.5665 20.2779V20.2809C22.4257 21.6697 20.9646 22.7604 19.3088 23.4591C17.7861 24.1026 16.1335 24.3794 14.4842 24.2672C12.1882 24.1509 10.0337 23.1229 8.49872 21.4116C10.2975 20.6157 12.0368 19.6916 13.7032 18.6466L18.4946 19.5512C18.7924 19.5978 19.0716 19.3942 19.1183 19.0965C19.1633 18.8092 18.9752 18.5371 18.6906 18.4777L15.0089 17.7812C16.7089 16.6136 18.2913 15.2836 19.7339 13.8099C19.7604 13.7872 19.7846 13.7619 19.8063 13.7345C23.6117 9.77237 25.2309 5.85241 25.9064 3.44013C27.7699 11.3886 26.3436 16.9188 23.5665 20.2779Z" fill="#00B307"/>
</svg>
