<svg width="31" height="33" viewBox="0 0 31 33" fill="none" xmlns="http://www.w3.org/2000/svg">
<path d="M30.0152 8.02203C30.0152 7.901 29.9883 7.77997 29.9345 7.66567C29.8269 7.43706 29.6185 7.28242 29.3899 7.23535L15.6936 0.592282C15.4717 0.484702 15.2095 0.484702 14.9876 0.592282L1.15686 7.29586C0.887911 7.42362 0.713094 7.69257 0.699646 7.99514V8.00186C0.699646 8.00858 0.699646 8.01531 0.699646 8.02875V24.8516C0.699646 25.1609 0.874464 25.4433 1.15686 25.5778L14.9876 32.2813C14.9943 32.2813 14.9943 32.2813 15.0011 32.2881C15.0212 32.2948 15.0414 32.3015 15.0616 32.315C15.0683 32.315 15.075 32.3217 15.0885 32.3217C15.1086 32.3284 15.1288 32.3351 15.149 32.3418C15.1557 32.3418 15.1624 32.3486 15.1692 32.3486C15.1893 32.3553 15.2162 32.3553 15.2364 32.362C15.2431 32.362 15.2498 32.362 15.2566 32.362C15.2835 32.362 15.3171 32.3687 15.344 32.3687C15.3709 32.3687 15.4045 32.3687 15.4314 32.362C15.4381 32.362 15.4448 32.362 15.4516 32.362C15.4717 32.362 15.4986 32.3553 15.5188 32.3486C15.5255 32.3486 15.5322 32.3418 15.539 32.3418C15.5591 32.3351 15.5793 32.3284 15.5995 32.3217C15.6062 32.3217 15.6129 32.315 15.6264 32.315C15.6465 32.3082 15.6667 32.3015 15.6869 32.2881C15.6936 32.2881 15.6936 32.2881 15.7003 32.2813L29.5714 25.5576C29.8471 25.4231 30.0287 25.1407 30.0287 24.8314V8.0422C30.0152 8.03548 30.0152 8.02875 30.0152 8.02203ZM15.3373 2.21271L27.3324 8.02875L22.9149 10.1736L10.9198 4.35758L15.3373 2.21271ZM15.3373 13.8448L3.34208 8.02875L9.07072 5.25184L21.0659 11.0679L15.3373 13.8448ZM2.31335 9.32644L14.5304 15.2501V30.2642L2.31335 24.3406V9.32644ZM16.1441 30.2642V15.2501L21.8795 12.4664V16.3931C21.8795 16.8369 22.2425 17.2 22.6863 17.2C23.1301 17.2 23.4932 16.8369 23.4932 16.3931V11.6798L28.4015 9.29954V24.3137L16.1441 30.2642Z" fill="#00B307"/>
</svg>
