<svg width="39" height="38" viewBox="0 0 39 38" fill="none" xmlns="http://www.w3.org/2000/svg">
<path d="M25.1812 2.67096C27.8339 3.38443 30.2526 4.78238 32.195 6.72482C34.1375 8.66725 35.5354 11.086 36.2489 13.7387" stroke="#2C742F" stroke-width="1.80336" stroke-linecap="round" stroke-linejoin="round"/>
<path d="M23.564 8.71948C25.1553 9.14759 26.6062 9.98624 27.7714 11.1515C28.9366 12.3167 29.7753 13.7676 30.2034 15.3589" stroke="#2C742F" stroke-width="1.80336" stroke-linecap="round" stroke-linejoin="round"/>
<path d="M12.0897 19.2615C13.7124 22.58 16.4019 25.258 19.7275 26.8663C19.971 26.9817 20.2403 27.0315 20.509 27.011C20.7777 26.9904 21.0363 26.9001 21.2594 26.749L26.1572 23.4848C26.3735 23.3404 26.6224 23.2522 26.8815 23.2281C27.1405 23.2041 27.4014 23.245 27.6406 23.3471L36.8024 27.2747C37.1136 27.4069 37.3735 27.6367 37.5428 27.9293C37.7121 28.222 37.7818 28.5617 37.7413 28.8974C37.4513 31.1632 36.3455 33.2456 34.6309 34.7549C32.9163 36.2641 30.7104 37.0968 28.4261 37.0969C21.371 37.0969 14.6048 34.2943 9.61608 29.3056C4.62735 24.3168 1.82471 17.5506 1.82471 10.4955C1.82492 8.21143 2.65761 6.00574 4.1669 4.29138C5.67618 2.57702 7.75857 1.47153 10.0242 1.18188C10.3599 1.1414 10.6996 1.21107 10.9923 1.3804C11.285 1.54973 11.5147 1.80955 11.6469 2.12075L15.5776 11.2904C15.6787 11.5273 15.7198 11.7856 15.6971 12.0422C15.6745 12.2987 15.5888 12.5458 15.4478 12.7613L12.193 17.7342C12.0453 17.9582 11.9581 18.2166 11.94 18.4842C11.9219 18.7519 11.9735 19.0197 12.0897 19.2615V19.2615Z" stroke="#2C742F" stroke-width="1.80336" stroke-linecap="round" stroke-linejoin="round"/>
</svg>
