<svg width="47" height="37" viewBox="0 0 47 37" fill="none" xmlns="http://www.w3.org/2000/svg">
<path d="M44.4835 0.813049H3.0964C1.82659 0.813049 0.797119 1.84243 0.797119 3.11233V33.7694C0.797119 35.0392 1.8265 36.0687 3.0964 36.0687H44.4835C45.7533 36.0687 46.7827 35.0393 46.7827 33.7694V3.11233C46.7827 1.84252 45.7534 0.813049 44.4835 0.813049ZM45.2499 33.7695C45.2499 34.1928 44.9068 34.5359 44.4835 34.5359H3.0964C2.6731 34.5359 2.33 34.1928 2.33 33.7695V3.11233C2.33 2.68903 2.6731 2.34593 3.0964 2.34593H44.4835C44.9068 2.34593 45.2499 2.68903 45.2499 3.11233V33.7695Z" fill="#2C742F"/>
<path d="M43.0181 3.88193C42.8155 3.86423 42.6142 3.92773 42.4586 4.0585L24.777 18.9118C24.2068 19.3911 23.3745 19.3911 22.8042 18.9118L5.12284 4.05841C4.91312 3.88238 4.62535 3.83154 4.36803 3.92513C4.11071 4.01872 3.92281 4.24254 3.87521 4.51225C3.82761 4.78197 3.92749 5.05654 4.1372 5.23258L21.8187 20.0851C22.9583 21.0446 24.6231 21.0446 25.7628 20.0851L43.4441 5.23266C43.5999 5.10198 43.6972 4.91481 43.7149 4.71227C43.7326 4.50974 43.6691 4.30846 43.5384 4.15281C43.4078 3.99698 43.2206 3.89962 43.0181 3.88193Z" fill="#2C742F"/>
<path d="M15.538 19.9799C15.2667 19.9194 14.9839 20.0104 14.7989 20.2179L4.0689 31.7143C3.87472 31.9132 3.8034 32.2017 3.88262 32.4681C3.96184 32.7345 4.1791 32.9372 4.45034 32.9977C4.72168 33.0582 5.00442 32.9672 5.18944 32.7597L15.9194 21.2633C16.1136 21.0644 16.1849 20.7759 16.1057 20.5095C16.0265 20.2432 15.8093 20.0404 15.538 19.9799Z" fill="#2C742F"/>
<path d="M32.7803 20.2179C32.5953 20.0104 32.3125 19.9194 32.0412 19.9799C31.7698 20.0404 31.5527 20.2432 31.4734 20.5095C31.3942 20.776 31.4655 21.0644 31.6597 21.2633L42.3897 32.7597C42.6807 33.0577 43.1564 33.0688 43.461 32.7847C43.7655 32.5005 43.7874 32.0252 43.5103 31.7142L32.7803 20.2179Z" fill="#2C742F"/>
</svg>
