<svg width="30" height="31" viewBox="0 0 30 31" fill="none" xmlns="http://www.w3.org/2000/svg">
<path d="M23.3538 13.5275C23.2336 13.1566 22.9189 12.8913 22.533 12.8353L17.9577 12.1705L15.9117 8.02501C15.7394 7.67509 15.39 7.45776 14.9999 7.45776C14.6099 7.45776 14.2604 7.67509 14.0882 8.02466L12.042 12.1705L7.46675 12.8353C7.08103 12.8913 6.76649 13.1564 6.64585 13.5274C6.52562 13.8979 6.62411 14.2971 6.90319 14.5696L10.214 17.7966L9.43245 22.3533C9.36642 22.7375 9.52128 23.1186 9.83675 23.3479C10.015 23.4775 10.2236 23.5433 10.4335 23.5433C10.5951 23.5433 10.7575 23.5042 10.9076 23.4254L14.9999 21.2739L19.0919 23.4254C19.2372 23.5017 19.4008 23.5421 19.5649 23.5421C19.7812 23.5421 19.9879 23.475 20.1628 23.3479C20.4777 23.1188 20.6328 22.7379 20.5671 22.3535L20.2579 20.5508C20.2136 20.2929 19.9685 20.1197 19.711 20.1639C19.4531 20.2082 19.28 20.4531 19.3242 20.7109L19.6333 22.5134C19.6377 22.5394 19.6268 22.5662 19.6057 22.5816C19.5743 22.6045 19.5515 22.5967 19.5325 22.5868L15.22 20.3196C15.0821 20.2471 14.9174 20.247 14.7792 20.3196L10.4663 22.5869C10.4433 22.599 10.4146 22.5969 10.3934 22.5816C10.3719 22.5659 10.3613 22.54 10.3658 22.5137L11.1896 17.7114C11.216 17.5576 11.1651 17.4009 11.0534 17.2921L7.56442 13.8914C7.54556 13.873 7.53853 13.845 7.54655 13.8202C7.5547 13.7952 7.57673 13.7766 7.60269 13.7728L12.4244 13.0722C12.5788 13.0497 12.7121 12.9529 12.7811 12.813L14.9377 8.4436C14.9611 8.39608 15.0382 8.39567 15.0618 8.44384L17.2183 12.813C17.2873 12.9528 17.4207 13.0497 17.575 13.0722L22.3968 13.7728C22.4227 13.7766 22.4446 13.795 22.4528 13.8204C22.4609 13.8452 22.4539 13.873 22.4352 13.8912L18.9461 17.2921C18.8345 17.4009 18.7835 17.5577 18.81 17.7114L19.0702 19.2287C19.1144 19.4865 19.3594 19.6597 19.6171 19.6154C19.875 19.5712 20.0482 19.3263 20.0039 19.0685L19.7857 17.7966L23.0966 14.5694C23.3758 14.2971 23.4743 13.8977 23.3538 13.5275Z" fill="#00B307" stroke="#00B307" stroke-width="0.225"/>
<path d="M2.72355 15.0264H0.473672C0.212051 15.0264 0 15.2385 0 15.5001C0 15.7617 0.212051 15.9738 0.473672 15.9738H2.72355C2.98523 15.9738 3.19723 15.7616 3.19723 15.5001C3.19723 15.2385 2.98518 15.0264 2.72355 15.0264Z" fill="#00B307" stroke="#00B307" stroke-width="0.225"/>
<path d="M29.526 15.0264H27.2762C27.0145 15.0264 26.8025 15.2385 26.8025 15.5001C26.8025 15.7617 27.0145 15.9738 27.2762 15.9738H29.526C29.7877 15.9738 29.9997 15.7616 29.9997 15.5001C29.9997 15.2385 29.7877 15.0264 29.526 15.0264Z" fill="#00B307" stroke="#00B307" stroke-width="0.225"/>
<path d="M5.98455 23.8457L4.39367 25.4365C4.20863 25.6215 4.20863 25.9214 4.39361 26.1064C4.48613 26.1989 4.60736 26.2451 4.72859 26.2451C4.84976 26.2451 4.97105 26.1989 5.06345 26.1064L6.65433 24.5156C6.83937 24.3306 6.83937 24.0307 6.65439 23.8457C6.46941 23.6607 6.16947 23.6607 5.98455 23.8457Z" fill="#00B307" stroke="#00B307" stroke-width="0.225"/>
<path d="M24.9365 4.8932L23.3456 6.48402C23.1605 6.669 23.1605 6.96894 23.3455 7.15392C23.438 7.24644 23.5593 7.29267 23.6805 7.29267C23.8017 7.29267 23.923 7.24644 24.0154 7.15386L25.6063 5.56304C25.7913 5.37812 25.7913 5.07818 25.6063 4.8932C25.4214 4.70816 25.1214 4.7081 24.9365 4.8932Z" fill="#00B307" stroke="#00B307" stroke-width="0.225"/>
<path d="M15 27.3032C14.7384 27.3032 14.5264 27.5153 14.5264 27.7769V30.0267C14.5264 30.2883 14.7384 30.5004 15 30.5004C15.2617 30.5004 15.4737 30.2883 15.4737 30.0267V27.7769C15.4737 27.5153 15.2617 27.3032 15 27.3032Z" fill="#00B307" stroke="#00B307" stroke-width="0.225"/>
<path d="M15 3.69735C15.2617 3.69735 15.4737 3.48524 15.4737 3.22368V0.973794C15.4737 0.712173 15.2616 0.500122 15 0.500122C14.7384 0.500122 14.5264 0.712231 14.5264 0.973794V3.22368C14.5264 3.4853 14.7384 3.69735 15 3.69735Z" fill="#00B307" stroke="#00B307" stroke-width="0.225"/>
<path d="M24.0154 23.8456C23.8305 23.6606 23.5306 23.6606 23.3455 23.8456C23.1605 24.0305 23.1605 24.3305 23.3456 24.5154L24.9365 26.1063C25.029 26.1988 25.1502 26.2451 25.2714 26.2451C25.3926 26.2451 25.5139 26.1988 25.6063 26.1063C25.7913 25.9213 25.7913 25.6214 25.6063 25.4364L24.0154 23.8456Z" fill="#00B307" stroke="#00B307" stroke-width="0.225"/>
<path d="M5.98449 7.15398C6.07701 7.2465 6.19824 7.29273 6.31947 7.29273C6.44064 7.29273 6.56193 7.2465 6.65439 7.1541C6.83937 6.96912 6.83937 6.66917 6.65439 6.48419L5.06352 4.89325C4.8786 4.70827 4.57872 4.70827 4.39362 4.89325C4.20864 5.07817 4.20864 5.37812 4.39362 5.5631L5.98449 7.15398Z" fill="#00B307" stroke="#00B307" stroke-width="0.225"/>
</svg>
