<svg width="33" height="23" viewBox="0 0 33 23" fill="none" xmlns="http://www.w3.org/2000/svg">
<path d="M26.902 16.461C26.1236 16.461 25.3841 16.7659 24.8262 17.3172C24.2683 17.8751 23.957 18.6016 23.957 19.3801C23.957 20.1585 24.2619 20.885 24.8262 21.4429C25.3906 21.9943 26.1236 22.2992 26.902 22.2992C28.4978 22.2992 29.7952 20.9888 29.7952 19.3801C29.7952 17.7713 28.4978 16.461 26.902 16.461ZM26.902 21.0018C26.0068 21.0018 25.2543 20.2623 25.2543 19.3801C25.2543 18.4979 26.0068 17.7584 26.902 17.7584C27.7842 17.7584 28.4978 18.4849 28.4978 19.3801C28.4978 20.2753 27.7842 21.0018 26.902 21.0018ZM27.6545 6.73712C27.5377 6.62684 27.382 6.56846 27.2199 6.56846H23.8921C23.5353 6.56846 23.2434 6.86037 23.2434 7.21715V12.5364C23.2434 12.8932 23.5353 13.1851 23.8921 13.1851H29.1724C29.5292 13.1851 29.8211 12.8932 29.8211 12.5364V8.97509C29.8211 8.79346 29.7433 8.61832 29.6071 8.49507L27.6545 6.73712ZM28.5237 11.8877H24.5408V7.85935H26.9669L28.5237 9.26052V11.8877ZM11.061 16.461C10.2826 16.461 9.54309 16.7659 8.98521 17.3172C8.42734 17.8751 8.11597 18.6016 8.11597 19.3801C8.11597 20.1585 8.42085 20.885 8.98521 21.4429C9.54957 21.9943 10.2826 22.2992 11.061 22.2992C12.6568 22.2992 13.9542 20.9888 13.9542 19.3801C13.9542 17.7713 12.6568 16.461 11.061 16.461ZM11.061 21.0018C10.1658 21.0018 9.41335 20.2623 9.41335 19.3801C9.41335 18.4979 10.1658 17.7584 11.061 17.7584C11.9432 17.7584 12.6568 18.4849 12.6568 19.3801C12.6568 20.2753 11.9432 21.0018 11.061 21.0018ZM6.73426 17.2589H5.43039V15.5333C5.43039 15.1766 5.13848 14.8847 4.7817 14.8847C4.42492 14.8847 4.13301 15.1766 4.13301 15.5333V17.9075C4.13301 18.2643 4.42492 18.5562 4.7817 18.5562H6.73426C7.09104 18.5562 7.38295 18.2643 7.38295 17.9075C7.38295 17.5508 7.09104 17.2589 6.73426 17.2589ZM10.0231 13.7235C10.0231 13.3667 9.7312 13.0748 9.37443 13.0748H1.50582C1.14904 13.0748 0.857132 13.3667 0.857132 13.7235C0.857132 14.0803 1.14904 14.3722 1.50582 14.3722H9.37443C9.7312 14.3722 10.0231 14.0868 10.0231 13.7235ZM2.82266 11.3817L10.6913 11.4271C11.048 11.4271 11.34 11.1417 11.3464 10.7849C11.3529 10.4217 11.061 10.1298 10.7042 10.1298L2.83564 10.0844C2.82915 10.0844 2.82915 10.0844 2.82915 10.0844C2.47237 10.0844 2.18046 10.3698 2.18046 10.7266C2.17397 11.0898 2.46588 11.3817 2.82266 11.3817ZM4.14599 8.43668H12.0146C12.3714 8.43668 12.6633 8.14477 12.6633 7.78799C12.6633 7.43121 12.3714 7.1393 12.0146 7.1393H4.14599C3.78921 7.1393 3.4973 7.43121 3.4973 7.78799C3.4973 8.14477 3.78921 8.43668 4.14599 8.43668ZM32.4743 7.56095L27.8296 3.71422C27.7129 3.61692 27.5702 3.56503 27.4145 3.56503H21.9525V1.22974C21.9525 0.872965 21.6606 0.581055 21.3038 0.581055H4.7817C4.42492 0.581055 4.13301 0.872965 4.13301 1.22974V5.97815C4.13301 6.33493 4.42492 6.62684 4.7817 6.62684C5.13848 6.62684 5.43039 6.33493 5.43039 5.97815V1.87843H20.6616V17.2589H15.3424C14.9856 17.2589 14.6937 17.5508 14.6937 17.9075C14.6937 18.2643 14.9856 18.5562 15.3424 18.5562H23.2629C23.6196 18.5562 23.9116 18.2643 23.9116 17.9075C23.9116 17.5508 23.6196 17.2589 23.2629 17.2589H21.959V4.86241H27.1874L31.4169 8.36533L31.3715 17.2459H30.6969C30.3401 17.2459 30.0482 17.5378 30.0482 17.8946C30.0482 18.2514 30.3401 18.5433 30.6969 18.5433H32.0137C32.3705 18.5433 32.6624 18.2578 32.6624 17.9011L32.7143 8.06693C32.7078 7.87232 32.6235 7.6842 32.4743 7.56095Z" fill="#00B307"/>
</svg>
